<?xml version="1.0" encoding="UTF-8" standalone="no"?>
<!-- Created with Inkscape (http://www.inkscape.org/) -->

<svg
   xmlns:dc="http://purl.org/dc/elements/1.1/"
   xmlns:cc="http://creativecommons.org/ns#"
   xmlns:rdf="http://www.w3.org/1999/02/22-rdf-syntax-ns#"
   xmlns:svg="http://www.w3.org/2000/svg"
   xmlns="http://www.w3.org/2000/svg"
   xmlns:sodipodi="http://sodipodi.sourceforge.net/DTD/sodipodi-0.dtd"
   xmlns:inkscape="http://www.inkscape.org/namespaces/inkscape"
   id="svg2"
   version="1.1"
   inkscape:version="0.48.4 r9939"
   width="592.79999"
   height="396.89999"
   xml:space="preserve"
   sodipodi:docname="UHCI11D.svg"><metadata
     id="metadata8"><rdf:RDF><cc:Work
         rdf:about=""><dc:format>image/svg+xml</dc:format><dc:type
           rdf:resource="http://purl.org/dc/dcmitype/StillImage" /><dc:title></dc:title></cc:Work></rdf:RDF></metadata><defs
     id="defs6" /><sodipodi:namedview
     pagecolor="#ffffff"
     bordercolor="#666666"
     borderopacity="1"
     objecttolerance="10"
     gridtolerance="10"
     guidetolerance="10"
     inkscape:pageopacity="0"
     inkscape:pageshadow="2"
     inkscape:window-width="1282"
     inkscape:window-height="721"
     id="namedview4"
     showgrid="false"
     inkscape:zoom="0.67425131"
     inkscape:cx="620.98837"
     inkscape:cy="197.27681"
     inkscape:window-x="0"
     inkscape:window-y="27"
     inkscape:window-maximized="0"
     inkscape:current-layer="g10"
     fit-margin-top="0"
     fit-margin-left="0"
     fit-margin-right="0"
     fit-margin-bottom="0" /><g
     id="g10"
     inkscape:groupmode="layer"
     inkscape:label="UHCI11D"
     transform="matrix(1.25,0,0,-1.25,-86.1,863.1)"><path
       d="m 68.88,689.76 0.72,0 0,0.72 -0.72,0 0,-0.72 z"
       style="fill:#000000;fill-opacity:1;fill-rule:nonzero;stroke:none"
       id="path58"
       inkscape:connector-curvature="0" /><path
       d="m 68.88,689.76 0.72,0 0,0.72 -0.72,0 0,-0.72 z"
       style="fill:#000000;fill-opacity:1;fill-rule:nonzero;stroke:none"
       id="path60"
       inkscape:connector-curvature="0" /><path
       d="m 69.6,689.76 472.8,0 0,0.72 -472.8,0 0,-0.72 z"
       style="fill:#000000;fill-opacity:1;fill-rule:nonzero;stroke:none"
       id="path62"
       inkscape:connector-curvature="0" /><path
       d="m 542.4,689.76 0.72,0 0,0.72 -0.72,0 0,-0.72 z"
       style="fill:#000000;fill-opacity:1;fill-rule:nonzero;stroke:none"
       id="path64"
       inkscape:connector-curvature="0" /><path
       d="m 542.4,689.76 0.72,0 0,0.72 -0.72,0 0,-0.72 z"
       style="fill:#000000;fill-opacity:1;fill-rule:nonzero;stroke:none"
       id="path66"
       inkscape:connector-curvature="0" /><path
       d="m 68.88,680.88 0.72,0 0,8.88 -0.72,0 0,-8.88 z"
       style="fill:#000000;fill-opacity:1;fill-rule:nonzero;stroke:none"
       id="path68"
       inkscape:connector-curvature="0" /><path
       d="m 542.4,680.88 0.72,0 0,8.88 -0.72,0 0,-8.88 z"
       style="fill:#000000;fill-opacity:1;fill-rule:nonzero;stroke:none"
       id="path70"
       inkscape:connector-curvature="0" /><path
       d="m 326.4,528 -0.24,0 0,-0.48 0.24,-0.24 32.4,0 0.48,0.48 -0.24,0.24 -32.64,0"
       style="fill:#000000;fill-opacity:1;fill-rule:nonzero;stroke:none"
       id="path72"
       inkscape:connector-curvature="0" /><path
       d="m 219.6,495.36 -0.24,0.24 -0.48,0 0,-1.92 0.24,-0.48 0,-0.24 0.24,-0.24 0,-0.24 0.24,-0.24 0,-0.48 0.72,-0.72 0.24,-0.48 0.24,-0.24 0.96,-0.48 0.48,-0.48 0.48,-0.24 0.24,-0.24 0.72,0 0.24,-0.24 0.96,0 0.24,-0.24 0.48,0.48 -0.24,0.24 -0.24,0 -0.24,0.24 -0.96,0 -0.48,0.24 -0.24,0 -0.24,0.24 -0.48,0.24 -0.24,0 -0.24,0.24 -0.72,0.48 -0.48,0.72 -0.48,0.48 0,0.24 -0.24,0.24 0,0.24 -0.24,0.24 0,0.24 -0.24,0.24 0,1.92"
       style="fill:#000000;fill-opacity:1;fill-rule:nonzero;stroke:none"
       id="path74"
       inkscape:connector-curvature="0" /><path
       d="m 231.6,495.36 -0.24,0.24 -0.48,0 0,-0.24 -0.24,-0.24 0,-1.92 -0.24,-0.48 -0.48,-0.48 0,-0.24 -0.48,-0.48 0,-0.24 -0.48,-0.48 -0.72,-0.48 -0.24,-0.24 -0.24,0 -0.48,-0.24 -0.24,-0.24 -0.24,0 -0.48,-0.24 -0.96,0 -0.24,-0.24 -0.24,0 0,-0.48 0.24,-0.24 0.24,0.24 1.2,0 0.48,0.24 0.24,0 0.96,0.48 0.48,0.48 0.48,0.24 1.2,1.2 0,0.24 0.24,0.24 0,0.48 0.24,0.24 0.24,0.48 0,0.24 0.24,0.48 0,1.2 0.24,0.48"
       style="fill:#000000;fill-opacity:1;fill-rule:nonzero;stroke:none"
       id="path76"
       inkscape:connector-curvature="0" /><path
       d="m 186.24,607.44 -0.24,0.24 -0.48,0 0,-0.48 -0.24,-0.24 -0.24,0 -0.48,-0.48 -0.48,-0.24 -0.24,0 -0.96,-0.48 -0.72,0 -0.48,-0.24 -0.72,-0.24 -0.72,0 -1.44,-0.48 -0.96,0 -0.96,-0.24 -0.72,0 -0.96,-0.24 -0.96,0 -0.96,-0.24 -1.2,0 -0.96,-0.24 -2.4,0 -2.16,-0.24 -5.04,0 0,-0.48 0.24,-0.24 1.2,0 3.6,0.24 2.4,0 1.2,0.24 1.92,0 1.2,0.24 1.92,0 0.96,0.24 0.96,0 0.96,0.24 0.72,0 0.72,0.24 0.96,0.24 0.72,0 0.48,0.24 1.44,0.48 0.48,0 1.44,0.72 0.24,0.24 0.24,0 0.48,0.48 0.24,0.48 0,0.24"
       style="fill:#000000;fill-opacity:1;fill-rule:nonzero;stroke:none"
       id="path78"
       inkscape:connector-curvature="0" /><path
       d="m 137.28,599.28 0,-0.24 0.24,-0.24 0.24,0 0,0.24 0.24,0.24 0,0.48 0.24,0 0.24,0.24 0.48,0.24 0.24,0.24 0.48,0 0.48,0.24 0.48,0 0.48,0.24 0.72,0.24 0.72,0 1.44,0.48 0.72,0 0.96,0.24 0.72,0 0.96,0.24 0.96,0 0.96,0.24 0.96,0 1.2,0.24 2.16,0 0.96,0.24 7.2,0 0.48,0.48 -0.24,0.24 -7.44,0 -1.2,-0.24 -1.92,0 -1.2,-0.24 -0.96,0 -0.96,-0.24 -0.96,0 -0.96,-0.24 -0.96,0 -0.72,-0.24 -0.96,0 -1.44,-0.48 -0.72,0 -0.72,-0.24 -0.96,-0.48 -0.48,0 -0.96,-0.48 -0.24,0 -0.48,-0.24 0,-0.24 -0.24,-0.48 -0.24,-0.24 0,-0.24"
       style="fill:#000000;fill-opacity:1;fill-rule:nonzero;stroke:none"
       id="path80"
       inkscape:connector-curvature="0" /><path
       d="m 89.76,607.44 -0.24,0.24 -0.48,0 0,-0.96 0.48,-0.48 0.48,0 0.24,-0.24 0.96,-0.48 0.24,-0.24 0.72,0 0.48,-0.24 1.44,-0.48 0.72,0 0.72,-0.24 0.96,-0.24 1.68,-0.24 0.96,0 0.72,-0.24 2.16,0 0.96,-0.24 2.16,0 1.2,-0.24 2.4,0 3.6,-0.24 1.2,0 0,0.24 0.24,0 0,0.24 -0.24,0.24 -4.8,0 -2.4,0.24 -2.16,0 -1.2,0.24 -0.96,0 -0.96,0.24 -0.96,0 -0.96,0.24 -0.96,0 -1.68,0.24 -1.44,0.48 -0.96,0 -0.48,0.24 -0.72,0.24 -0.48,0 -0.72,0.24 -0.48,0.24 -0.24,0 -0.24,0.24 -0.48,0.24 -0.24,0.24 -0.24,0 0,0.48"
       style="fill:#000000;fill-opacity:1;fill-rule:nonzero;stroke:none"
       id="path82"
       inkscape:connector-curvature="0" /><path
       d="m 137.28,599.28 0,-0.24 0.24,-0.24 0.24,0 0,0.24 0.24,0.24 -0.24,0.24 0,0.24 -0.24,0.48 -0.48,0.48 -0.24,0 -0.96,0.48 -0.48,0 -0.48,0.24 -1.44,0.48 -0.72,0 -0.48,0.24 -0.96,0.24 -0.72,0 -0.96,0.24 -0.72,0 -0.96,0.24 -0.96,0 -0.96,0.24 -2.16,0.24 -2.16,0 -0.96,0.24 -7.68,0 0,-0.48 0.24,-0.24 7.2,0 1.2,-0.24 2.16,0 2.16,-0.24 0.72,-0.24 1.2,0 0.72,-0.24 0.96,0 0.72,-0.24 0.96,0 1.44,-0.48 0.72,0 0.48,-0.24 0.72,-0.24 0.48,0 0.48,-0.24 0.24,0 0.48,-0.24 0.48,-0.48 0.24,0 0.24,-0.24 0,-0.24"
       style="fill:#000000;fill-opacity:1;fill-rule:nonzero;stroke:none"
       id="path84"
       inkscape:connector-curvature="0" /><path
       d="m 89.28,622.8 -0.24,0 0,-12.96 0.24,-0.24 109.68,0 0,0.24 0.24,0 0,12.96 -109.92,0 0,-0.48 109.68,0 -0.48,0.24 0,-12.48 0.48,0.24 -109.68,0 0.48,-0.24 0,12.48 -0.48,-0.24 0,0.48"
       style="fill:#000000;fill-opacity:1;fill-rule:nonzero;stroke:none"
       id="path86"
       inkscape:connector-curvature="0" /><text
       transform="matrix(0.81625,0,0,-1,106.56,613.2)"
       id="text88"><tspan
         style="font-size:7.67999983px;font-variant:normal;font-weight:normal;writing-mode:lr-tb;fill:#000000;fill-opacity:1;fill-rule:nonzero;stroke:none;font-family:Helvetica;-inkscape-font-specification:Helvetica"
         x="0 6.174912 11.761728 16.4664 63.513313 66.159744 71.452515 76.745277 82.038048"
         y="0"
         sodipodi:role="line"
         id="tspan90">BaseIndex</tspan></text>
<path
       d="m 147.84,622.56 0,0.24 -0.72,0 0,-13.44 0.24,-0.24 0.24,0 0,0.24 0.24,0 0,13.2"
       style="fill:#000000;fill-opacity:1;fill-rule:nonzero;stroke:none"
       id="path92"
       inkscape:connector-curvature="0" /><text
       transform="matrix(0.81625,0,0,-1,181.92,626.16)"
       id="text94"><tspan
         style="font-size:7.67999983px;font-variant:normal;font-weight:normal;writing-mode:lr-tb;fill:#000000;fill-opacity:1;fill-rule:nonzero;stroke:none;font-family:Helvetica;-inkscape-font-specification:Helvetica"
         x="0 -39.401855 -34.991905 -55.280159 -50.870209 -110.85437 -106.44441"
         y="0"
         sodipodi:role="line"
         id="tspan96">2111231</tspan></text>
<path
       d="m 154.32,674.16 -0.24,0 0,-23.28 0.24,-0.24 36.24,0 0,23.28 -0.24,0.24 -36,0 0,-0.72 36,0 -0.48,0.48 0,-23.04 0.48,0.48 -36,0 0.48,-0.48 0,23.04 -0.48,-0.48 0,0.72"
       style="fill:#000000;fill-opacity:1;fill-rule:nonzero;stroke:none"
       id="path98"
       inkscape:connector-curvature="0" /><text
       transform="matrix(0.81625,0,0,-1,158.4,665.04)"
       id="text100"><tspan
         style="font-size:7.67999983px;font-variant:normal;font-weight:normal;writing-mode:lr-tb;fill:#000000;fill-opacity:1;fill-rule:nonzero;stroke:none;font-family:Helvetica;-inkscape-font-specification:Helvetica"
         x="0 4.7825279 7.430016 11.790144 18.277632 22.63776"
         y="0"
         sodipodi:role="line"
         id="tspan102">Frame </tspan><tspan
         style="font-size:7.67999983px;font-variant:normal;font-weight:normal;writing-mode:lr-tb;fill:#000000;fill-opacity:1;fill-rule:nonzero;stroke:none;font-family:Helvetica;-inkscape-font-specification:Helvetica"
         x="0 5.6323199 9.9897604 14.3472 18.704639 20.92704 25.284479"
         y="9.8402882"
         sodipodi:role="line"
         id="tspan104">Counter</tspan></text>
<path
       d="m 171.6,650.4 0,0.24 -0.24,0.24 -0.24,0 0,-0.24 -0.24,0 0,-26.16 0.24,-0.24 0.24,0 0,0.24 0.24,0 0,25.92"
       style="fill:#000000;fill-opacity:1;fill-rule:nonzero;stroke:none"
       id="path106"
       inkscape:connector-curvature="0" /><path
       d="m 175.2,631.44 -3.84,-7.68 -3.84,7.68 7.68,0"
       style="fill:#000000;fill-opacity:1;fill-rule:evenodd;stroke:none"
       id="path108"
       inkscape:connector-curvature="0" /><path
       d="m 175.2,631.2 -0.48,0.48 -3.84,-7.68 0.72,0 -3.84,7.68 -0.24,-0.48 7.68,0 0.48,0.72 -8.88,0 4.56,-8.88 4.32,8.88 -0.48,-0.72"
       style="fill:#000000;fill-opacity:1;fill-rule:nonzero;stroke:none"
       id="path110"
       inkscape:connector-curvature="0" /><path
       d="m 98.4,528 -0.24,0 0,-77.76 0.24,-0.24 81.12,0 0,0.24 0.24,0 0,77.52 -0.24,0.24 -81.12,0 0,-0.72 81.12,0 -0.48,0.48 0,-77.28 0.48,0.24 -81.12,0 0.48,-0.24 0,77.28 -0.48,-0.48 0,0.72"
       style="fill:#000000;fill-opacity:1;fill-rule:nonzero;stroke:none"
       id="path112"
       inkscape:connector-curvature="0" /><path
       d="m 97.92,515.04 -0.24,0 0,-0.48 0.24,-0.24 82.08,0 0,0.24 0.24,0 0,0.24 -0.24,0.24 -82.08,0"
       style="fill:#000000;fill-opacity:1;fill-rule:nonzero;stroke:none"
       id="path114"
       inkscape:connector-curvature="0" /><path
       d="m 97.92,489.12 -0.24,0 0,-0.48 0.24,-0.24 82.08,0 0,0.24 0.24,0 0,0.24 -0.24,0.24 -82.08,0"
       style="fill:#000000;fill-opacity:1;fill-rule:nonzero;stroke:none"
       id="path116"
       inkscape:connector-curvature="0" /><path
       d="m 97.92,476.4 -0.24,0 0,-0.48 0.24,-0.24 82.32,0 0,0.48 -0.24,0.24 -82.08,0"
       style="fill:#000000;fill-opacity:1;fill-rule:nonzero;stroke:none"
       id="path118"
       inkscape:connector-curvature="0" /><text
       transform="matrix(0.90083333,0,0,-1,119.52,533.04)"
       id="text120"><tspan
         style="font-size:7.67999983px;font-variant:normal;font-weight:bold;writing-mode:lr-tb;fill:#000000;fill-opacity:1;fill-rule:nonzero;stroke:none;font-family:Helvetica;-inkscape-font-specification:Helvetica-Bold"
         x="0 4.7295361 7.7541118 12.061248 18.925823 23.23296 25.358784 30.08832 32.260414 36.567551"
         y="0"
         sodipodi:role="line"
         id="tspan122">Frame List</tspan></text>
<path
       d="m 135.6,501.84 -0.24,0 0,-0.24 -0.48,0 0,-0.48 -0.24,0 0,-0.72 0.24,0 0,-0.48 0.24,0 0,-0.24 1.2,0 0,0.24 0.24,0 0,0.24 0.24,0 0,1.2 -0.24,0 0,0.24 -0.48,0 0,0.24 -0.48,0"
       style="fill:#000000;fill-opacity:1;fill-rule:evenodd;stroke:none"
       id="path124"
       inkscape:connector-curvature="0" /><path
       d="m 134.4,500.88 0,-0.72 0.24,0 0,-0.24 0.24,-0.48 0.48,0 0.24,-0.24 0.24,0.24 0.24,0 -0.24,0 0.48,0 0,0.24 0.48,0.24 0,0.24 0.24,0 0,0.48 0.24,0 0,0.24 -0.24,0.24 0,0.24 -0.24,0 -0.24,0.48 0,-0.24 -0.24,0.48 -1.44,0 0,-0.24 -0.24,0 0.24,-0.24 -0.24,0.24 0,-0.48 -0.24,0 0,-0.48 0.48,0 0,0.24 0.24,0 0,0.24 0.48,0 0,0.24 0,-0.24 0,0.24 0,-0.24 0.48,0 0.24,-0.24 0,-0.24 0.24,0 -0.24,0 0.24,0 -0.24,0 0,-0.24 -0.24,-0.24 0,-0.24 -0.24,0 -0.24,-0.24 0,0.24 -0.24,0 -0.24,0.24 0,0.24 -0.24,0 0,0.24 -0.48,0"
       style="fill:#000000;fill-opacity:1;fill-rule:nonzero;stroke:none"
       id="path126"
       inkscape:connector-curvature="0" /><path
       d="m 135.6,510.48 -0.24,0 0,-0.24 -0.48,0 0,-0.48 -0.24,0 0,-0.72 0.24,0 0,-0.48 0.24,0 0,-0.24 1.2,0 0,0.24 0.24,0 0,0.24 0.24,0 0,1.2 -0.24,0 0,0.24 -0.48,0 0,0.24 -0.48,0"
       style="fill:#000000;fill-opacity:1;fill-rule:evenodd;stroke:none"
       id="path128"
       inkscape:connector-curvature="0" /><path
       d="m 134.4,509.52 0,-0.72 0.24,0 0,-0.24 0.24,-0.48 0.48,0 0.24,-0.24 0.24,0.24 0.24,0 -0.24,0 0.48,0 0,0.24 0.48,0.24 0,0.24 0.24,0 0,0.48 0.24,0 0,0.24 -0.24,0 0,0.48 -0.24,0 -0.24,0.48 0,-0.24 -0.24,0.48 -1.44,0 0,-0.24 -0.24,0 0.24,-0.24 -0.24,0.24 0,-0.48 -0.24,0 0,-0.48 0.48,0 0,0.24 0.24,0 0,0.24 0.48,0 0,0.24 0,-0.24 0,0.24 0,-0.24 0.48,0 0.24,-0.48 0.24,0 -0.24,0 0.24,0 -0.24,0 0,-0.24 -0.24,-0.24 0,-0.24 -0.24,0 -0.24,-0.24 0,0.24 -0.24,0 -0.24,0.24 0,0.24 -0.24,0 0,0.24 -0.48,0"
       style="fill:#000000;fill-opacity:1;fill-rule:nonzero;stroke:none"
       id="path130"
       inkscape:connector-curvature="0" /><path
       d="m 135.6,493.2 -0.24,0 0,-0.24 -0.48,0 0,-0.48 -0.24,0 0,-0.72 0.24,0 0,-0.48 0.24,0 0,-0.24 1.2,0 0,0.24 0.24,0 0,0.24 0.24,0 0,1.2 -0.24,0 0,0.24 -0.48,0 0,0.24 -0.48,0"
       style="fill:#000000;fill-opacity:1;fill-rule:evenodd;stroke:none"
       id="path132"
       inkscape:connector-curvature="0" /><path
       d="m 134.4,492.24 0,-0.72 0.24,0 0,-0.24 0.24,-0.48 0.48,0 0.24,-0.24 0.24,0.24 0.24,0 -0.24,0 0.48,0 0,0.24 0.48,0.24 0,0.24 0.24,0 0,0.48 0.24,0 0,0.24 -0.24,0.24 0,0.48 -0.24,0 -0.24,0.24 0,-0.24 -0.24,0.48 -1.44,0 0,-0.24 -0.24,0 0.24,-0.24 -0.24,0.24 0,-0.24 -0.24,0 0,-0.72 0.48,0 0,0.24 0.24,0 0,0.24 0.24,0 0,0.24 0.48,0 0,-0.24 0.24,0 0.24,-0.24 0,-0.24 0.24,0 -0.24,0 0.24,0 -0.24,0 0,-0.24 -0.24,-0.24 0,-0.24 -0.24,0 -0.24,-0.24 0,0.24 -0.24,0 -0.24,0.24 0,0.24 -0.24,0 0,0.24 -0.48,0"
       style="fill:#000000;fill-opacity:1;fill-rule:nonzero;stroke:none"
       id="path134"
       inkscape:connector-curvature="0" /><path
       d="m 83.28,577.2 0,0.24 -0.24,0.24 -0.24,0 0,-0.24 -0.24,0 0,-95.28 0.24,-0.24 0.24,0 0,0.24 0.24,0.24 0,94.8"
       style="fill:#000000;fill-opacity:1;fill-rule:nonzero;stroke:none"
       id="path136"
       inkscape:connector-curvature="0" /><path
       d="m 83.04,482.64 -0.48,0 0,-0.48 0.24,-0.24 12.96,0 0.48,0.48 -0.24,0.24 -12.96,0"
       style="fill:#000000;fill-opacity:1;fill-rule:nonzero;stroke:none"
       id="path138"
       inkscape:connector-curvature="0" /><path
       d="m 88.8,486.24 7.92,-3.84 -7.92,-3.84 0,7.68"
       style="fill:#000000;fill-opacity:1;fill-rule:evenodd;stroke:none"
       id="path140"
       inkscape:connector-curvature="0" /><path
       d="m 89.28,486.24 -0.72,-0.24 8.16,-3.84 0,0.48 -8.16,-3.84 0.72,-0.24 0,7.68 -0.72,0.72 0,-8.88 8.88,4.32 -8.88,4.56 0.72,-0.72"
       style="fill:#000000;fill-opacity:1;fill-rule:nonzero;stroke:none"
       id="path142"
       inkscape:connector-curvature="0" /><path
       d="m 179.52,480.48 0,-0.48 0.24,-0.24 0.24,0 0,0.24 0.24,0 21.36,47.52 0.24,0.24 -0.24,0 0,0.24 -0.48,0 -21.6,-47.52"
       style="fill:#000000;fill-opacity:1;fill-rule:nonzero;stroke:none"
       id="path144"
       inkscape:connector-curvature="0" /><path
       d="m 195.12,522.72 6.72,5.76 0.24,-8.88 -6.96,3.12"
       style="fill:#000000;fill-opacity:1;fill-rule:evenodd;stroke:none"
       id="path146"
       inkscape:connector-curvature="0" /><path
       d="m 195.12,523.2 0,-0.72 6.96,5.76 -0.72,0.24 0.24,-8.88 0.48,0.48 -6.96,3.12 -0.72,-0.48 7.92,-3.6 -0.24,10.08 -7.68,-6.48 0.72,0.48"
       style="fill:#000000;fill-opacity:1;fill-rule:nonzero;stroke:none"
       id="path148"
       inkscape:connector-curvature="0" /><path
       d="m 179.52,467.52 0,-0.48 0.72,0 0,0.24 21.36,32.16 0.24,0.24 -0.24,0.24 -0.48,0 -21.6,-32.4"
       style="fill:#000000;fill-opacity:1;fill-rule:nonzero;stroke:none"
       id="path150"
       inkscape:connector-curvature="0" /><path
       d="m 194.4,495.84 7.68,4.56 -1.44,-8.88 -6.24,4.32"
       style="fill:#000000;fill-opacity:1;fill-rule:evenodd;stroke:none"
       id="path152"
       inkscape:connector-curvature="0" /><path
       d="m 194.64,496.08 0,-0.48 7.44,4.56 -0.48,0.24 -1.2,-8.64 0.48,0.24 -6.24,4.08 -0.96,-0.24 7.2,-4.8 1.44,10.08 -8.64,-5.28 0.96,0.24"
       style="fill:#000000;fill-opacity:1;fill-rule:nonzero;stroke:none"
       id="path154"
       inkscape:connector-curvature="0" /><path
       d="m 205.92,545.28 -0.48,0 0,-0.48 0.24,-0.24 71.28,0 0,0.24 0.24,0 0,0.24 -0.24,0.24 -71.04,0"
       style="fill:#000000;fill-opacity:1;fill-rule:nonzero;stroke:none"
       id="path156"
       inkscape:connector-curvature="0" /><path
       d="m 270,548.64 7.92,-3.6 -7.92,-4.08 0,7.68"
       style="fill:#000000;fill-opacity:1;fill-rule:evenodd;stroke:none"
       id="path158"
       inkscape:connector-curvature="0" /><path
       d="m 270.24,548.64 -0.48,-0.24 7.92,-3.6 0,0.48 -7.92,-3.84 0.48,-0.48 0,7.68 -0.72,0.72 0,-8.88 9.12,4.56 -9.12,4.32 0.72,-0.72"
       style="fill:#000000;fill-opacity:1;fill-rule:nonzero;stroke:none"
       id="path160"
       inkscape:connector-curvature="0" /><text
       transform="matrix(0.90083333,0,0,-1,214.32,578.4)"
       id="text162"><tspan
         style="font-size:7.67999983px;font-variant:normal;font-weight:bold;writing-mode:lr-tb;fill:#000000;fill-opacity:1;fill-rule:nonzero;stroke:none;font-family:Helvetica;-inkscape-font-specification:Helvetica-Bold"
         x="0 2.1841919 6.5034242 11.245056 15.564288 20.30592 23.342592 28.084225 32.825855 37.56749 42.30912 46.628353"
         y="0"
         sodipodi:role="line"
         id="tspan164">Isochronous </tspan><tspan
         style="font-size:7.67999983px;font-variant:normal;font-weight:bold;writing-mode:lr-tb;fill:#000000;fill-opacity:1;fill-rule:nonzero;stroke:none;font-family:Helvetica;-inkscape-font-specification:Helvetica-Bold"
         x="-16.783873 -12.070368 -9.0618238 -4.77072 -0.057216 4.2338881 6.8123522 11.103456 14.112 16.240225 21.806208 26.097313 30.388416 34.67952 37.688065 39.844128 44.557632 47.136097 51.849602 54.858143"
         y="9.6002884"
         sodipodi:role="line"
         id="tspan166">Transfer Descriptors</tspan></text>
<text
       transform="matrix(0.81625,0,0,-1,195.12,548.4)"
       id="text168"><tspan
         style="font-size:7.67999983px;font-variant:normal;font-weight:normal;writing-mode:lr-tb;fill:#000000;fill-opacity:1;fill-rule:nonzero;stroke:none;font-family:Helvetica;-inkscape-font-specification:Helvetica"
         x="0 5.6024642 9.930048 12.544992 14.307456 18.20496 22.532543 26.860128 29.052671 33.380257 35.142719 37.184834 42.364895 46.262402 50.589985 54.487488 58.815071 61.007614 62.770081 67.097664"
         y="0"
         sodipodi:role="line"
         id="tspan170">Horizontal Execution</tspan></text>
<text
       transform="matrix(0.90083333,0,0,-1,298.08,610.8)"
       id="text172"><tspan
         style="font-size:7.67999983px;font-variant:normal;font-weight:bold;writing-mode:lr-tb;fill:#000000;fill-opacity:1;fill-rule:nonzero;stroke:none;font-family:Helvetica;-inkscape-font-specification:Helvetica-Bold"
         x="0 5.9963522 10.710144 15.001536 19.715328 24.00672 26.134945 31.701216 35.992607 40.284 44.997791"
         y="0"
         sodipodi:role="line"
         id="tspan174">Queue Heads</tspan></text>
<path
       d="m 313.44,553.92 -0.24,0 0,-0.48 0.24,-0.24 148.8,0 0.48,0.48 -0.24,0.24 -149.04,0"
       style="fill:#000000;fill-opacity:1;fill-rule:nonzero;stroke:none"
       id="path176"
       inkscape:connector-curvature="0" /><path
       d="m 455.28,557.28 7.92,-3.6 -7.92,-4.08 0,7.68"
       style="fill:#000000;fill-opacity:1;fill-rule:evenodd;stroke:none"
       id="path178"
       inkscape:connector-curvature="0" /><path
       d="m 455.76,557.28 -0.72,-0.24 8.16,-3.6 0,0.48 -8.16,-3.84 0.72,-0.48 0,7.68 -0.72,0.72 0,-8.88 8.88,4.56 -8.88,4.32 0.72,-0.72"
       style="fill:#000000;fill-opacity:1;fill-rule:nonzero;stroke:none"
       id="path180"
       inkscape:connector-curvature="0" /><text
       transform="matrix(0.81625,0,0,-1,345.84,567.84)"
       id="text182"><tspan
         style="font-size:7.67999983px;font-variant:normal;font-weight:normal;writing-mode:lr-tb;fill:#000000;fill-opacity:1;fill-rule:nonzero;stroke:none;font-family:Helvetica;-inkscape-font-specification:Helvetica"
         x="0 5.1605759 9.0385923 13.346688 17.224705 21.532801 23.705856 25.448832 29.756927 34.065025 36.112511 41.273087 45.151104 47.198593 52.359169 54.954624 59.262718 63.570816 67.878914 70.051971"
         y="0"
         sodipodi:role="line"
         id="tspan184">Execution By Breadth</tspan><tspan
         style="font-size:7.67999983px;font-variant:normal;font-weight:normal;writing-mode:lr-tb;fill:#000000;fill-opacity:1;fill-rule:nonzero;stroke:none;font-family:Helvetica;-inkscape-font-specification:Helvetica"
         x="0 2.6178241 8.2231684 12.553632 15.171456 16.9368 20.837185 25.167648 29.498112 31.693537 36.023998 37.789345 39.830593 45.013535 48.913921 53.244385 57.144768 61.475231 63.670654 65.435997 69.766464 74.096931"
         y="9.6002884"
         sodipodi:role="line"
         id="tspan186">(Horizontal Execution)</tspan></text>
<path
       d="m 490.56,534.24 0,0.24 -0.48,0 0,-97.44 0.24,-0.24 0.24,0 0,97.44"
       style="fill:#000000;fill-opacity:1;fill-rule:nonzero;stroke:none"
       id="path188"
       inkscape:connector-curvature="0" /><path
       d="m 494.16,444 -3.84,-7.92 -3.84,7.92 7.68,0"
       style="fill:#000000;fill-opacity:1;fill-rule:evenodd;stroke:none"
       id="path190"
       inkscape:connector-curvature="0" /><path
       d="m 494.16,443.52 -0.48,0.72 -3.6,-7.92 0.48,0 -3.84,7.92 -0.24,-0.72 7.68,0 0.48,0.72 -8.88,0 4.56,-8.88 4.32,8.88 -0.48,-0.72"
       style="fill:#000000;fill-opacity:1;fill-rule:nonzero;stroke:none"
       id="path192"
       inkscape:connector-curvature="0" /><text
       transform="matrix(0.81625,0,0,-1,496.8,496.8)"
       id="text194"><tspan
         style="font-size:7.67999983px;font-variant:normal;font-weight:normal;writing-mode:lr-tb;fill:#000000;fill-opacity:1;fill-rule:nonzero;stroke:none;font-family:Helvetica;-inkscape-font-specification:Helvetica"
         x="0 5.1648002 9.04704 13.35936 17.2416 21.553921 23.731199 25.478399 29.79072 34.103039"
         y="0"
         sodipodi:role="line"
         id="tspan196">Execution </tspan><tspan
         style="font-size:7.67999983px;font-variant:normal;font-weight:normal;writing-mode:lr-tb;fill:#000000;fill-opacity:1;fill-rule:nonzero;stroke:none;font-family:Helvetica;-inkscape-font-specification:Helvetica"
         x="0 5.1569281 9.0312958 11.079744 16.659073 20.96352 25.267967 27.437376"
         y="9.6002884"
         sodipodi:role="line"
         id="tspan198">By Depth</tspan><tspan
         style="font-size:7.67999983px;font-variant:normal;font-weight:normal;writing-mode:lr-tb;fill:#000000;fill-opacity:1;fill-rule:nonzero;stroke:none;font-family:Helvetica;-inkscape-font-specification:Helvetica"
         x="0 2.5968959 7.7589121 12.068448 14.665344 16.83984 18.584255 22.463713 26.773249"
         y="19.200577"
         sodipodi:role="line"
         id="tspan200">(Vertical</tspan><tspan
         style="font-size:7.67999983px;font-variant:normal;font-weight:normal;writing-mode:lr-tb;fill:#000000;fill-opacity:1;fill-rule:nonzero;stroke:none;font-family:Helvetica;-inkscape-font-specification:Helvetica"
         x="0 5.1694078 9.0562563 13.373184 17.260033 21.57696 23.758848 25.510656 29.827583 34.144512"
         y="29.040865"
         sodipodi:role="line"
         id="tspan202">Execution)</tspan></text>
<path
       d="m 365.52,523.44 -0.24,0.24 -0.24,0 0,-0.24 -0.24,0 0,-32.64 0.24,-0.24 0.24,0 0,0.24 0.24,0 0,32.64"
       style="fill:#000000;fill-opacity:1;fill-rule:nonzero;stroke:none"
       id="path204"
       inkscape:connector-curvature="0" /><path
       d="m 369.6,528 -0.24,0 0,-0.48 0.24,-0.24 32.4,0 0,0.24 0.24,0 0,0.24 -0.24,0.24 -32.4,0"
       style="fill:#000000;fill-opacity:1;fill-rule:nonzero;stroke:none"
       id="path206"
       inkscape:connector-curvature="0" /><path
       d="m 416.88,528 -0.24,0 0,-0.48 0.24,-0.24 32.4,0 0.24,0.24 0,0.48 -32.64,0"
       style="fill:#000000;fill-opacity:1;fill-rule:nonzero;stroke:none"
       id="path208"
       inkscape:connector-curvature="0" /><path
       d="m 274.56,502.08 -0.24,0 0,-0.48 0.24,-0.24 0.24,0 0,0.24 28.08,19.2 0,0.24 0.24,0 0,0.24 -0.24,0 0,0.24 -0.48,0 -27.84,-19.44"
       style="fill:#000000;fill-opacity:1;fill-rule:nonzero;stroke:none"
       id="path210"
       inkscape:connector-curvature="0" /><path
       d="m 294.72,520.32 8.88,1.44 -4.56,-7.68 -4.32,6.24"
       style="fill:#000000;fill-opacity:1;fill-rule:evenodd;stroke:none"
       id="path212"
       inkscape:connector-curvature="0" /><path
       d="m 294.96,520.56 -0.24,-0.48 8.88,1.2 -0.48,0.72 -4.32,-7.68 0.48,0 -4.32,6.24 -0.96,0 5.04,-7.2 5.04,8.88 -10.08,-1.68 0.96,0"
       style="fill:#000000;fill-opacity:1;fill-rule:nonzero;stroke:none"
       id="path214"
       inkscape:connector-curvature="0" /><path
       d="m 274.8,530.16 -0.24,0 0,-0.24 -0.24,0 0,-0.24 0.24,-0.24 30.48,0 0,0.24 0.24,0 0,0.24 -0.24,0.24 -30.24,0"
       style="fill:#000000;fill-opacity:1;fill-rule:nonzero;stroke:none"
       id="path216"
       inkscape:connector-curvature="0" /><path
       d="m 298.08,533.76 7.92,-4.08 -7.92,-3.6 0,7.68"
       style="fill:#000000;fill-opacity:1;fill-rule:evenodd;stroke:none"
       id="path218"
       inkscape:connector-curvature="0" /><path
       d="m 298.32,533.76 -0.48,-0.24 7.92,-4.08 0,0.72 -7.92,-3.84 0.48,-0.24 0,7.68 -0.72,0.48 0,-8.64 9.12,4.08 -9.12,4.56 0.72,-0.48"
       style="fill:#000000;fill-opacity:1;fill-rule:nonzero;stroke:none"
       id="path220"
       inkscape:connector-curvature="0" /><path
       d="m 413.04,523.44 -0.24,0.24 -0.24,0 0,-0.24 -0.24,0 0,-32.64 0.24,-0.24 0.24,0 0,0.24 0.24,0 0,32.64"
       style="fill:#000000;fill-opacity:1;fill-rule:nonzero;stroke:none"
       id="path222"
       inkscape:connector-curvature="0" /><path
       d="m 456.24,523.44 -0.24,0.24 -0.48,0 0,-32.88 0.24,-0.24 0.48,0.48 0,32.4"
       style="fill:#000000;fill-opacity:1;fill-rule:nonzero;stroke:none"
       id="path224"
       inkscape:connector-curvature="0" /><path
       d="m 467.52,468.96 -0.24,0 0,-0.48 0.24,-0.24 0.48,0.24 1.2,0 0.24,0.24 0.96,0.24 0.24,0.24 0.48,0.24 0.72,0.48 0.48,0.48 0.72,0.96 0.72,0.72 0,0.24 0.24,0.48 0,0.72 0.24,0.72 0,0.72 -0.24,0.24 -0.24,0 0,-0.48 0,0.24 -0.24,-0.48 0,-0.72 -0.24,-0.72 -0.24,-0.24 0,-0.24 -0.24,-0.48 0,-0.24 -1.44,-1.44 -0.72,-0.48 -0.24,0 -0.24,-0.24 -0.96,-0.24 -0.24,-0.24 -1.2,0 -0.24,-0.24"
       style="fill:#000000;fill-opacity:1;fill-rule:nonzero;stroke:none"
       id="path226"
       inkscape:connector-curvature="0" /><path
       d="m 467.52,481.2 -0.24,0 0,-0.48 0.24,-0.24 0.96,0 0.24,-0.24 0.48,0 0.24,-0.24 0.72,-0.24 0.24,0 0.24,-0.24 0.72,-0.24 0.48,-0.48 0,-0.24 0.96,-0.96 0,-0.24 0.24,-0.48 0.24,-0.24 0,-0.24 0.24,-0.48 0,-0.72 0.24,-0.48 0.24,-0.24 0.24,0 0,0.96 -0.24,0.72 0,0.72 -0.24,0.24 -0.24,0.72 -0.48,0.48 -0.24,0.48 -0.96,0.96 -0.72,0.48 -0.48,0.24 -0.24,0 -0.72,0.24 -0.24,0.24 -0.72,0 -0.24,0.24 -0.96,0"
       style="fill:#000000;fill-opacity:1;fill-rule:nonzero;stroke:none"
       id="path228"
       inkscape:connector-curvature="0" /><path
       d="m 83.04,577.68 -0.24,0 0,-0.24 -0.24,0 0,-0.24 0.24,-0.24 54.24,0 0,0.24 0.24,0 0,0.24 -0.24,0.24 -54,0"
       style="fill:#000000;fill-opacity:1;fill-rule:nonzero;stroke:none"
       id="path230"
       inkscape:connector-curvature="0" /><path
       d="m 137.28,594.48 0,0.24 -0.24,0.24 -0.48,0 0,-17.76 0.24,-0.24 0.24,0 0,0.24 0.24,0 0,17.28"
       style="fill:#000000;fill-opacity:1;fill-rule:nonzero;stroke:none"
       id="path232"
       inkscape:connector-curvature="0" /><text
       transform="matrix(0.799604,0,0,-1,378.24,538.8)"
       id="text234"><tspan
         style="font-size:6.7171998px;font-variant:normal;font-weight:normal;writing-mode:lr-tb;fill:#000000;fill-opacity:1;fill-rule:nonzero;stroke:none;font-family:Helvetica;-inkscape-font-specification:Helvetica"
         x="0 3.6556921 5.0678396 8.7235317"
         y="0"
         sodipodi:role="line"
         id="tspan236">Link</tspan><tspan
         style="font-size:6.7171998px;font-variant:normal;font-weight:normal;writing-mode:lr-tb;fill:#000000;fill-opacity:1;fill-rule:nonzero;stroke:none;font-family:Helvetica;-inkscape-font-specification:Helvetica"
         x="0 4.3982306 8.0508518 9.4599285 13.11255 14.89779 18.550411"
         y="8.8799467"
         sodipodi:role="line"
         id="tspan238">Pointer</tspan><tspan
         style="font-size:6.7171998px;font-variant:normal;font-weight:normal;writing-mode:lr-tb;fill:#000000;fill-opacity:1;fill-rule:nonzero;stroke:none;font-family:Helvetica;-inkscape-font-specification:Helvetica"
         x="-13.507137 -9.0742655 -7.630547 -3.9432843 1.6046431 5.2919064 8.9791689"
         y="25.919949"
         sodipodi:role="line"
         id="tspan240">Element</tspan><tspan
         style="font-size:6.7171998px;font-variant:normal;font-weight:normal;writing-mode:lr-tb;fill:#000000;fill-opacity:1;fill-rule:nonzero;stroke:none;font-family:Helvetica;-inkscape-font-specification:Helvetica"
         x="-13.507137 -9.8514452 -8.4392986 -4.7836061"
         y="34.799892"
         sodipodi:role="line"
         id="tspan242">Link</tspan><tspan
         style="font-size:6.7171998px;font-variant:normal;font-weight:normal;writing-mode:lr-tb;fill:#000000;fill-opacity:1;fill-rule:nonzero;stroke:none;font-family:Helvetica;-inkscape-font-specification:Helvetica"
         x="-13.507137 -9.1089067 -5.4562855 -4.0472088 -0.39458752 1.3906523 5.0432739"
         y="43.67984"
         sodipodi:role="line"
         id="tspan244">Pointer</tspan><tspan
         style="font-size:6.7171998px;font-variant:normal;font-weight:normal;writing-mode:lr-tb;fill:#000000;fill-opacity:1;fill-rule:nonzero;stroke:none;font-family:Helvetica;-inkscape-font-specification:Helvetica"
         x="56.429756 60.085449 61.497597 65.15329"
         y="-9.596e-05"
         sodipodi:role="line"
         id="tspan246">Link</tspan><tspan
         style="font-size:6.7171998px;font-variant:normal;font-weight:normal;writing-mode:lr-tb;fill:#000000;fill-opacity:1;fill-rule:nonzero;stroke:none;font-family:Helvetica;-inkscape-font-specification:Helvetica"
         x="56.429756 60.827988 64.480606 65.889687 69.542305 71.327545 74.980171"
         y="8.8798504"
         sodipodi:role="line"
         id="tspan248">Pointer</tspan><tspan
         style="font-size:6.7171998px;font-variant:normal;font-weight:normal;writing-mode:lr-tb;fill:#000000;fill-opacity:1;fill-rule:nonzero;stroke:none;font-family:Helvetica;-inkscape-font-specification:Helvetica"
         x="45.624084 50.056957 51.500675 55.187939 60.735867 64.423126 68.11039"
         y="25.919851"
         sodipodi:role="line"
         id="tspan250">Element</tspan><tspan
         style="font-size:6.7171998px;font-variant:normal;font-weight:normal;writing-mode:lr-tb;fill:#000000;fill-opacity:1;fill-rule:nonzero;stroke:none;font-family:Helvetica;-inkscape-font-specification:Helvetica"
         x="45.624084 49.279778 50.691925 54.347618"
         y="34.799797"
         sodipodi:role="line"
         id="tspan252">Link</tspan><tspan
         style="font-size:6.7171998px;font-variant:normal;font-weight:normal;writing-mode:lr-tb;fill:#000000;fill-opacity:1;fill-rule:nonzero;stroke:none;font-family:Helvetica;-inkscape-font-specification:Helvetica"
         x="45.624084 50.022316 53.674938 55.084015 58.736637 60.521877 64.1745"
         y="43.679745"
         sodipodi:role="line"
         id="tspan254">Pointer</tspan><tspan
         style="font-size:6.7171998px;font-variant:normal;font-weight:normal;writing-mode:lr-tb;fill:#000000;fill-opacity:1;fill-rule:nonzero;stroke:none;font-family:Helvetica;-inkscape-font-specification:Helvetica"
         x="99.652634 104.08551 105.52923 109.21649 114.76442 118.45168 122.13895"
         y="25.919756"
         sodipodi:role="line"
         id="tspan256">Element</tspan><tspan
         style="font-size:6.7171998px;font-variant:normal;font-weight:normal;writing-mode:lr-tb;fill:#000000;fill-opacity:1;fill-rule:nonzero;stroke:none;font-family:Helvetica;-inkscape-font-specification:Helvetica"
         x="99.652634 103.30833 104.72047 108.37617"
         y="34.799702"
         sodipodi:role="line"
         id="tspan258">Link</tspan><tspan
         style="font-size:6.7171998px;font-variant:normal;font-weight:normal;writing-mode:lr-tb;fill:#000000;fill-opacity:1;fill-rule:nonzero;stroke:none;font-family:Helvetica;-inkscape-font-specification:Helvetica"
         x="99.652634 104.05087 107.70349 109.11256 112.76519 114.55043 118.20305"
         y="43.679649"
         sodipodi:role="line"
         id="tspan260">Pointer</tspan></text>
<path
       d="m 169.44,488.88 -0.24,0.24 -0.48,0 0,-39.12 0.24,-0.24 0.48,0 0,39.12"
       style="fill:#000000;fill-opacity:1;fill-rule:nonzero;stroke:none"
       id="path262"
       inkscape:connector-curvature="0" /><text
       transform="matrix(0.87447917,0,0,-1,171.36,466.56)"
       id="text264"><tspan
         style="font-size:7.67999983px;font-variant:normal;font-weight:normal;writing-mode:lr-tb;fill:#000000;fill-opacity:1;fill-rule:nonzero;stroke:none;font-family:Helvetica;-inkscape-font-specification:Helvetica"
         x="0"
         y="0"
         id="tspan266">T</tspan></text>
<path
       d="m 158.64,488.88 -0.24,0.24 -0.48,0 0,-39.12 0.24,-0.24 0.48,0 0,39.12"
       style="fill:#000000;fill-opacity:1;fill-rule:nonzero;stroke:none"
       id="path268"
       inkscape:connector-curvature="0" /><text
       transform="matrix(0.81625,0,0,-1,160.56,466.56)"
       id="text270"><tspan
         style="font-size:7.67999983px;font-variant:normal;font-weight:normal;writing-mode:lr-tb;fill:#000000;fill-opacity:1;fill-rule:nonzero;stroke:none;font-family:Helvetica;-inkscape-font-specification:Helvetica"
         x="0"
         y="0"
         id="tspan272">Q</tspan></text>
<text
       transform="matrix(0.87447917,0,0,-1,171.36,479.52)"
       id="text274"><tspan
         style="font-size:7.67999983px;font-variant:normal;font-weight:normal;writing-mode:lr-tb;fill:#000000;fill-opacity:1;fill-rule:nonzero;stroke:none;font-family:Helvetica;-inkscape-font-specification:Helvetica"
         x="0"
         y="0"
         id="tspan276">T</tspan></text>
<text
       transform="matrix(0.81625,0,0,-1,160.56,479.52)"
       id="text278"><tspan
         style="font-size:7.67999983px;font-variant:normal;font-weight:normal;writing-mode:lr-tb;fill:#000000;fill-opacity:1;fill-rule:nonzero;stroke:none;font-family:Helvetica;-inkscape-font-specification:Helvetica"
         x="0"
         y="0"
         id="tspan280">Q</tspan></text>
<path
       d="m 169.44,527.76 -0.24,0.24 -0.48,0 0,-13.44 0.24,-0.24 0.24,0 0,0.24 0.24,0 0,13.2"
       style="fill:#000000;fill-opacity:1;fill-rule:nonzero;stroke:none"
       id="path282"
       inkscape:connector-curvature="0" /><text
       transform="matrix(0.87447917,0,0,-1,171.36,518.4)"
       id="text284"><tspan
         style="font-size:7.67999983px;font-variant:normal;font-weight:normal;writing-mode:lr-tb;fill:#000000;fill-opacity:1;fill-rule:nonzero;stroke:none;font-family:Helvetica;-inkscape-font-specification:Helvetica"
         x="0"
         y="0"
         id="tspan286">T</tspan></text>
<path
       d="m 158.64,527.76 -0.24,0.24 -0.48,0 0,-13.44 0.24,-0.24 0.24,0 0,0.24 0.24,0 0,13.2"
       style="fill:#000000;fill-opacity:1;fill-rule:nonzero;stroke:none"
       id="path288"
       inkscape:connector-curvature="0" /><text
       transform="matrix(0.81625,0,0,-1,160.56,518.4)"
       id="text290"><tspan
         style="font-size:7.67999983px;font-variant:normal;font-weight:normal;writing-mode:lr-tb;fill:#000000;fill-opacity:1;fill-rule:nonzero;stroke:none;font-family:Helvetica;-inkscape-font-specification:Helvetica"
         x="0"
         y="0"
         id="tspan292">Q</tspan><tspan
         style="font-size:7.67999983px;font-variant:normal;font-weight:normal;writing-mode:lr-tb;fill:#000000;fill-opacity:1;fill-rule:nonzero;stroke:none;font-family:Helvetica;-inkscape-font-specification:Helvetica"
         x="-68.806175 -64.045731 -61.420319 -57.082272 -50.616863 -46.278816 -44.239586 -39.049057 -34.711006 -32.93808 -28.600033 -26.397024 -22.058975"
         y="38.881344"
         sodipodi:role="line"
         id="tspan294">Frame Pointer</tspan><tspan
         style="font-size:7.67999983px;font-variant:normal;font-weight:normal;writing-mode:lr-tb;fill:#000000;fill-opacity:1;fill-rule:nonzero;stroke:none;font-family:Helvetica;-inkscape-font-specification:Helvetica"
         x="-68.806175 -64.045731 -61.420319 -57.082272 -50.616863 -46.278816 -44.239586 -39.049057 -34.711006 -32.93808 -28.600033 -26.397024 -22.058975"
         y="51.841824"
         sodipodi:role="line"
         id="tspan296">Frame Pointer</tspan><tspan
         style="font-size:7.67999983px;font-variant:normal;font-weight:normal;writing-mode:lr-tb;fill:#000000;fill-opacity:1;fill-rule:nonzero;stroke:none;font-family:Helvetica;-inkscape-font-specification:Helvetica"
         x="-71.452606 -66.692162 -64.06675 -59.728703 -53.263294 -48.925247 -46.886017 -41.695488 -37.357441 -35.584511 -31.246464 -29.043455 -24.705408"
         y="9.6000003e-05"
         sodipodi:role="line"
         id="tspan298">Frame Pointer</tspan><tspan
         style="font-size:7.67999983px;font-variant:normal;font-weight:normal;writing-mode:lr-tb;fill:#000000;fill-opacity:1;fill-rule:nonzero;stroke:none;font-family:Helvetica;-inkscape-font-specification:Helvetica"
         x="-76.745377 -70.703331 -66.151199 -61.391712 -58.767265 -54.430176 -50.093086 -46.186081 -43.984032 -39.646942 -37.022495 -34.98307 -29.371103 -25.034016 -21.127008 -17.219999 -14.595552 -12.823584 -8.486496 -6.2844481 -1.94736 0.67708802 2.716512 7.0535998 9.6780481 11.717472 17.75952 22.096607 26.433697 30.770784 35.107872 37.147297 42.759266 47.096352 51.433441"
         y="95.043358"
         sodipodi:role="line"
         id="tspan300">Q=Transfer Descriptor or Queue Head</tspan><tspan
         style="font-size:7.67999983px;font-variant:normal;font-weight:normal;writing-mode:lr-tb;fill:#000000;fill-opacity:1;fill-rule:nonzero;stroke:none;font-family:Helvetica;-inkscape-font-specification:Helvetica"
         x="-76.745377 -71.994049 -67.450081 -62.698753 -58.369823 -55.753536 -49.297249 -47.53344 -43.204514 -38.875584 -36.681698"
         y="84.242973"
         sodipodi:role="line"
         id="tspan302">T=Terminate</tspan><tspan
         style="font-size:7.67999983px;font-variant:normal;font-weight:normal;writing-mode:lr-tb;fill:#000000;fill-opacity:1;fill-rule:nonzero;stroke:none;font-family:Helvetica;-inkscape-font-specification:Helvetica"
         x="-94.976067 -90.230499 -87.619965 -83.296799 -76.846275 -72.523102 -70.479843 -66.15667 -64.398621 -60.505535 -58.31741 -56.274143 -51.098495 -46.77533 -42.88224"
         y="-146.6449"
         sodipodi:role="line"
         id="tspan304">Frame List Base</tspan><tspan
         style="font-size:7.67999983px;font-variant:normal;font-weight:normal;writing-mode:lr-tb;fill:#000000;fill-opacity:1;fill-rule:nonzero;stroke:none;font-family:Helvetica;-inkscape-font-specification:Helvetica"
         x="-94.976067 -89.796188 -85.468803 -81.141411 -78.526657 -74.199265 -70.301949 -66.40464 -64.362526 -58.760258 -54.432865 -50.105473 -48.343201 -44.445889 -42.253536 -37.926144"
         y="-136.80461"
         sodipodi:role="line"
         id="tspan306">Address Register</tspan></text>
<path
       d="m 78.96,674.16 -0.24,0 0,-23.28 0.24,-0.24 68.4,0 0,0.24 0.24,0 0,23.04 -0.24,0.24 -68.4,0 0,-0.72 68.16,0 -0.24,0.48 0,-23.04 0.24,0.48 -68.16,0 0.48,-0.48 0,23.04 -0.48,-0.48 0,0.72"
       style="fill:#000000;fill-opacity:1;fill-rule:nonzero;stroke:none"
       id="path308"
       inkscape:connector-curvature="0" /><path
       d="m 117.84,650.4 0,0.24 -0.24,0.24 -0.48,0 0,-26.4 0.24,-0.24 0.48,0.48 0,25.68"
       style="fill:#000000;fill-opacity:1;fill-rule:nonzero;stroke:none"
       id="path310"
       inkscape:connector-curvature="0" /><path
       d="m 121.2,631.44 -3.84,-7.68 -3.84,7.68 7.68,0"
       style="fill:#000000;fill-opacity:1;fill-rule:evenodd;stroke:none"
       id="path312"
       inkscape:connector-curvature="0" /><path
       d="m 121.2,631.2 -0.24,0.48 -3.84,-7.68 0.48,0 -3.84,7.68 -0.24,-0.48 7.68,0 0.48,0.72 -8.64,0 4.32,-8.88 4.32,8.88 -0.48,-0.72"
       style="fill:#000000;fill-opacity:1;fill-rule:nonzero;stroke:none"
       id="path314"
       inkscape:connector-curvature="0" /><path
       d="m 447.6,490.8 -0.48,0 0,-12.24 0.24,-0.24 18.96,0 0,0.24 0.24,0 0,12 -0.24,0.24 -18.72,0 0,-0.48 18.48,0 -0.24,0.24 0,-12 0.24,0.48 -18.48,0 0.24,-0.48 0,12 -0.24,-0.24 0,0.48"
       style="fill:#000000;fill-opacity:1;fill-rule:nonzero;stroke:none"
       id="path316"
       inkscape:connector-curvature="0" /><text
       transform="matrix(0.84252636,0,0,-1,451.44,481.92)"
       id="text318"><tspan
         style="font-size:7.4368px;font-variant:normal;font-weight:normal;writing-mode:lr-tb;fill:#000000;fill-opacity:1;fill-rule:nonzero;stroke:none;font-family:Helvetica;-inkscape-font-specification:Helvetica"
         x="0 5.4120779"
         y="0"
         sodipodi:role="line"
         id="tspan320">TD</tspan></text>
<path
       d="m 467.52,447.6 -0.24,0 0,-0.48 0.24,-0.24 0.72,0 0.48,0.24 0.72,0 0.96,0.48 0.24,0 0.48,0.24 0.72,0.48 0.72,0.72 0.48,0.72 0.48,0.48 0.24,0.72 0.24,0.24 0,0.72 0.24,0.72 0,0.72 -0.24,0.24 -0.24,0 0,-0.48 0,0.24 -0.24,-0.48 0,-0.96 -0.24,-0.48 -0.24,-0.24 -0.24,-0.48 0,-0.24 -0.96,-0.96 -0.48,-0.72 -0.72,-0.24 -0.24,-0.24 -0.24,0 -0.96,-0.48 -0.48,0 -0.48,-0.24 -0.72,0"
       style="fill:#000000;fill-opacity:1;fill-rule:nonzero;stroke:none"
       id="path322"
       inkscape:connector-curvature="0" /><path
       d="m 467.52,459.6 -0.24,0 0,-0.48 0.24,-0.24 1.44,0 0.24,-0.24 0.24,0 0.48,-0.24 0.24,0 0.24,-0.24 0.24,0 0.48,-0.48 0.24,0 1.44,-1.44 0,-0.24 0.24,-0.72 0.24,-0.24 0,-0.24 0.24,-0.24 0,-0.96 0.24,-0.48 0.24,-0.24 0.24,0 0,1.44 -0.24,0.24 0,0.72 -0.48,0.96 -0.48,0.48 -0.48,0.72 -0.72,0.72 -0.48,0.24 0,0.24 -0.24,0 -0.48,0.24 -0.24,0.24 -0.24,0 -0.48,0.24 -0.24,0 -0.24,0.24 -1.68,0"
       style="fill:#000000;fill-opacity:1;fill-rule:nonzero;stroke:none"
       id="path324"
       inkscape:connector-curvature="0" /><path
       d="m 447.6,469.44 -0.24,0 0,-0.24 -0.24,0 0,-12.24 0.24,-0.24 18.72,0 0.48,0.48 0,12 -0.24,0.24 -18.72,0 0,-0.72 18.48,0 -0.24,0.24 0,-11.76 0.24,0.24 -18.48,0 0.24,-0.24 0,11.76 -0.24,-0.24 0,0.72"
       style="fill:#000000;fill-opacity:1;fill-rule:nonzero;stroke:none"
       id="path326"
       inkscape:connector-curvature="0" /><text
       transform="matrix(0.84252636,0,0,-1,451.44,460.32)"
       id="text328"><tspan
         style="font-size:7.4368px;font-variant:normal;font-weight:normal;writing-mode:lr-tb;fill:#000000;fill-opacity:1;fill-rule:nonzero;stroke:none;font-family:Helvetica;-inkscape-font-specification:Helvetica"
         x="0 5.4120779"
         y="0"
         sodipodi:role="line"
         id="tspan330">TD</tspan></text>
<path
       d="m 447.6,447.84 -0.24,0 0,-0.24 -0.24,0 0,-12.24 0.24,-0.24 18.96,0 0,0.24 0.24,0 0,12.24 -0.24,0.24 -18.72,0 0,-0.72 18.48,0 -0.24,0.24 0,-12 0.24,0.48 -18.48,0 0.24,-0.48 0,12 -0.24,-0.24 0,0.72"
       style="fill:#000000;fill-opacity:1;fill-rule:nonzero;stroke:none"
       id="path332"
       inkscape:connector-curvature="0" /><text
       transform="matrix(0.84252636,0,0,-1,451.44,438.96)"
       id="text334"><tspan
         style="font-size:7.4368px;font-variant:normal;font-weight:normal;writing-mode:lr-tb;fill:#000000;fill-opacity:1;fill-rule:nonzero;stroke:none;font-family:Helvetica;-inkscape-font-specification:Helvetica"
         x="0 5.4120779"
         y="0"
         sodipodi:role="line"
         id="tspan336">TD</tspan></text>
<path
       d="m 422.16,468.96 -0.24,0 0,-0.48 0.24,-0.24 0.48,0.24 1.2,0 0.48,0.24 0.24,0 0.96,0.48 0.24,0.24 0.24,0 0.48,0.48 1.2,0.96 0.24,0.48 0,0.24 0.72,0.72 0,0.24 0.24,0.48 0,0.48 0.24,0.72 0,0.72 -0.24,0.24 -0.24,0 0,-0.24 -0.24,0 0,-0.24 0,0.24 0,-0.72 -0.24,-0.48 0,-0.48 -0.24,-0.24 0,-0.24 -0.24,-0.24 0,-0.48 -0.24,-0.24 0,-0.24 -0.24,-0.24 -0.72,-0.48 -0.48,-0.48 -0.24,0 -0.48,-0.48 -0.24,0 -0.24,-0.24 -0.48,-0.24 -0.24,0 -0.24,-0.24 -1.44,0 -0.24,-0.24"
       style="fill:#000000;fill-opacity:1;fill-rule:nonzero;stroke:none"
       id="path338"
       inkscape:connector-curvature="0" /><path
       d="m 422.16,481.2 0,-0.24 -0.24,0 0,-0.24 0.24,-0.24 0.96,0 0.24,-0.24 0.72,0 0.24,-0.24 0.48,-0.24 0.24,0 0.24,-0.24 0.24,0 0.24,-0.24 0.24,0 1.44,-1.44 0.72,-1.44 0,-0.48 0.24,-0.48 0,-0.72 0.24,-0.24 0.48,0 0,0.96 -0.24,0.72 0,0.48 -0.24,0.48 -0.48,0.72 -0.24,0.48 -1.44,1.44 -0.24,0 -0.72,0.72 -0.48,0 -0.48,0.24 -0.24,0.24 -0.72,0 -0.48,0.24 -0.96,0"
       style="fill:#000000;fill-opacity:1;fill-rule:nonzero;stroke:none"
       id="path340"
       inkscape:connector-curvature="0" /><path
       d="m 402.48,490.8 -0.48,0 0,-12.24 0.24,-0.24 18.96,0 0,12.24 -0.24,0.24 -18.48,0 0,-0.48 18.48,0 -0.48,0.24 0,-12 0.48,0.48 -18.48,0 0.24,-0.48 0,12 -0.24,-0.24 0,0.48"
       style="fill:#000000;fill-opacity:1;fill-rule:nonzero;stroke:none"
       id="path342"
       inkscape:connector-curvature="0" /><text
       transform="matrix(0.84252636,0,0,-1,406.08,481.92)"
       id="text344"><tspan
         style="font-size:7.4368px;font-variant:normal;font-weight:normal;writing-mode:lr-tb;fill:#000000;fill-opacity:1;fill-rule:nonzero;stroke:none;font-family:Helvetica;-inkscape-font-specification:Helvetica"
         x="0 5.4120779"
         y="0"
         sodipodi:role="line"
         id="tspan346">TD</tspan></text>
<path
       d="m 422.16,447.6 0,-0.24 -0.24,0 0,-0.24 0.24,-0.24 0.72,0 0.96,0.24 0.48,0 0.24,0.24 0.48,0.24 0.48,0 0.72,0.72 0.24,0 1.2,1.2 0.24,0.48 0.24,0.24 0.48,0.72 0,0.24 0.24,0.24 0,0.48 0.24,0.72 0,0.72 -0.24,0.24 -0.24,0 0,-0.24 -0.24,0 0,-0.24 0,0.24 0,-0.72 -0.24,-0.48 0,-0.48 -0.24,-0.24 0,-0.24 -0.24,-0.48 -0.24,-0.24 -0.24,-0.48 -1.2,-1.2 -0.24,0 -0.24,-0.24 -0.24,0 -0.24,-0.24 -0.24,0 -0.48,-0.24 -0.24,-0.24 -0.24,0 -0.96,-0.24 -0.72,0"
       style="fill:#000000;fill-opacity:1;fill-rule:nonzero;stroke:none"
       id="path348"
       inkscape:connector-curvature="0" /><path
       d="m 422.16,459.6 -0.24,0 0,-0.48 0.24,-0.24 1.68,0 0.24,-0.24 0.24,0 0.24,-0.24 0.24,0 0.24,-0.24 0.24,0 0.48,-0.48 0.24,0 0.48,-0.48 0.48,-0.24 0.48,-0.48 0.24,-0.48 0.24,-0.72 0.24,-0.48 0,-0.48 0.24,-0.24 0,-0.96 0.24,-0.24 0.48,0 0,1.44 -0.24,0.24 0,0.48 -0.24,0.72 -0.48,0.48 -0.48,0.96 -0.72,0.48 -0.96,0.96 -0.24,0 -0.24,0.24 -0.48,0.24 -0.24,0 -0.24,0.24 -0.24,0 -0.48,0.24 -1.68,0"
       style="fill:#000000;fill-opacity:1;fill-rule:nonzero;stroke:none"
       id="path350"
       inkscape:connector-curvature="0" /><path
       d="m 402.48,469.44 -0.24,0 0,-0.24 -0.24,0 0,-12.24 0.24,-0.24 18.72,0 0,0.24 0.24,0 0,12.24 -0.24,0.24 -18.48,0 0,-0.72 18.48,0 -0.48,0.24 0,-11.76 0.48,0.24 -18.48,0 0.24,-0.24 0,11.76 -0.24,-0.24 0,0.72"
       style="fill:#000000;fill-opacity:1;fill-rule:nonzero;stroke:none"
       id="path352"
       inkscape:connector-curvature="0" /><text
       transform="matrix(0.84252636,0,0,-1,406.08,460.32)"
       id="text354"><tspan
         style="font-size:7.4368px;font-variant:normal;font-weight:normal;writing-mode:lr-tb;fill:#000000;fill-opacity:1;fill-rule:nonzero;stroke:none;font-family:Helvetica;-inkscape-font-specification:Helvetica"
         x="0 5.4120779"
         y="0"
         sodipodi:role="line"
         id="tspan356">TD</tspan></text>
<path
       d="m 402.48,447.84 -0.24,0 0,-0.24 -0.24,0 0,-12.24 0.24,-0.24 18.96,0 0,12.48 -0.24,0.24 -18.48,0 0,-0.72 18.48,0 -0.48,0.24 0,-12 0.48,0.48 -18.48,0 0.24,-0.48 0,12 -0.24,-0.24 0,0.72"
       style="fill:#000000;fill-opacity:1;fill-rule:nonzero;stroke:none"
       id="path358"
       inkscape:connector-curvature="0" /><text
       transform="matrix(0.84252636,0,0,-1,406.08,438.96)"
       id="text360"><tspan
         style="font-size:7.4368px;font-variant:normal;font-weight:normal;writing-mode:lr-tb;fill:#000000;fill-opacity:1;fill-rule:nonzero;stroke:none;font-family:Helvetica;-inkscape-font-specification:Helvetica"
         x="0 5.4120779"
         y="0"
         sodipodi:role="line"
         id="tspan362">TD</tspan></text>
<path
       d="m 374.88,468.96 -0.24,0 0,-0.48 0.24,-0.24 0.48,0.24 1.2,0 0.24,0.24 0.96,0.24 0.24,0.24 0.48,0.24 0.72,0.48 0.48,0.48 0.72,0.96 0.72,0.72 0,0.72 0.48,1.44 0,0.72 -0.24,0.24 -0.24,0 0,-0.48 0,0.24 -0.24,-0.48 0,-0.72 -0.24,-0.72 -0.24,-0.24 0,-0.24 -0.24,-0.48 0,-0.24 -1.44,-1.44 -0.72,-0.48 -0.24,0 -0.24,-0.24 -0.96,-0.24 -0.24,-0.24 -1.2,0 -0.24,-0.24"
       style="fill:#000000;fill-opacity:1;fill-rule:nonzero;stroke:none"
       id="path364"
       inkscape:connector-curvature="0" /><path
       d="m 374.88,481.2 -0.24,0 0,-0.48 0.24,-0.24 0.72,0 0.48,-0.24 0.48,0 0.24,-0.24 0.72,-0.24 0.24,0 0.24,-0.24 0.72,-0.24 0.48,-0.48 0,-0.24 0.96,-0.96 0,-0.24 0.24,-0.48 0.24,-0.24 0,-0.24 0.24,-0.48 0,-0.72 0.24,-0.48 0,-0.24 0.48,0 0,0.96 -0.24,0.72 0,0.48 -0.24,0.24 0,0.24 -0.24,0.72 -0.48,0.48 -0.24,0.48 -0.96,0.96 -0.72,0.48 -0.48,0.24 -0.24,0 -0.72,0.24 -0.24,0.24 -0.72,0 -0.24,0.24 -0.96,0"
       style="fill:#000000;fill-opacity:1;fill-rule:nonzero;stroke:none"
       id="path366"
       inkscape:connector-curvature="0" /><path
       d="m 354.96,490.8 -0.48,0 0,-12.24 0.24,-0.24 18.96,0 0,12.24 -0.24,0.24 -18.48,0 0,-0.48 18.48,0 -0.48,0.24 0,-12 0.48,0.48 -18.48,0 0.24,-0.48 0,12 -0.24,-0.24 0,0.48"
       style="fill:#000000;fill-opacity:1;fill-rule:nonzero;stroke:none"
       id="path368"
       inkscape:connector-curvature="0" /><text
       transform="matrix(0.84252636,0,0,-1,358.8,481.92)"
       id="text370"><tspan
         style="font-size:7.4368px;font-variant:normal;font-weight:normal;writing-mode:lr-tb;fill:#000000;fill-opacity:1;fill-rule:nonzero;stroke:none;font-family:Helvetica;-inkscape-font-specification:Helvetica"
         x="0 5.4120779"
         y="0"
         sodipodi:role="line"
         id="tspan372">TD</tspan></text>
<path
       d="m 374.88,447.6 -0.24,0 0,-0.48 0.24,-0.24 0.72,0 0.48,0.24 0.72,0 0.96,0.48 0.24,0 0.48,0.24 0.72,0.48 0.72,0.72 0.48,0.72 0.48,0.48 0.24,0.72 0,0.24 0.24,0.48 0,0.24 0.24,0.72 0,0.72 -0.24,0.24 -0.24,0 0,-0.48 0,0.24 -0.24,-0.48 0,-0.96 -0.24,-0.48 -0.24,-0.24 -0.24,-0.48 0,-0.24 -0.96,-0.96 -0.48,-0.72 -0.72,-0.24 -0.24,-0.24 -0.24,0 -0.96,-0.48 -0.48,0 -0.48,-0.24 -0.72,0"
       style="fill:#000000;fill-opacity:1;fill-rule:nonzero;stroke:none"
       id="path374"
       inkscape:connector-curvature="0" /><path
       d="m 374.88,459.6 -0.24,0 0,-0.48 0.24,-0.24 1.44,0 0.24,-0.24 0.24,0 0.48,-0.24 0.24,0 0.24,-0.24 0.24,0 0.48,-0.48 0.24,0 1.44,-1.44 0,-0.24 0.24,-0.72 0.24,-0.24 0,-0.24 0.24,-0.24 0,-0.96 0.24,-0.48 0,-0.24 0.48,0 0,1.44 -0.24,0.24 0,0.48 -0.24,0.24 0,0.48 -0.24,0.48 -0.48,0.48 -0.48,0.72 -0.72,0.72 -0.48,0.24 -0.24,0.24 -0.48,0.24 -0.24,0.24 -0.24,0 -0.48,0.24 -0.24,0 -0.24,0.24 -1.68,0"
       style="fill:#000000;fill-opacity:1;fill-rule:nonzero;stroke:none"
       id="path376"
       inkscape:connector-curvature="0" /><path
       d="m 354.96,469.44 -0.24,0 0,-0.24 -0.24,0 0,-12.24 0.24,-0.24 18.72,0 0,0.24 0.24,0 0,12.24 -0.24,0.24 -18.48,0 0,-0.72 18.48,0 -0.48,0.24 0,-11.76 0.48,0.24 -18.48,0 0.24,-0.24 0,11.76 -0.24,-0.24 0,0.72"
       style="fill:#000000;fill-opacity:1;fill-rule:nonzero;stroke:none"
       id="path378"
       inkscape:connector-curvature="0" /><text
       transform="matrix(0.84252636,0,0,-1,358.8,460.32)"
       id="text380"><tspan
         style="font-size:7.4368px;font-variant:normal;font-weight:normal;writing-mode:lr-tb;fill:#000000;fill-opacity:1;fill-rule:nonzero;stroke:none;font-family:Helvetica;-inkscape-font-specification:Helvetica"
         x="0 5.4120779"
         y="0"
         sodipodi:role="line"
         id="tspan382">TD</tspan></text>
<path
       d="m 354.96,447.84 -0.24,0 0,-0.24 -0.24,0 0,-12.24 0.24,-0.24 18.96,0 0,12.48 -0.24,0.24 -18.48,0 0,-0.72 18.48,0 -0.48,0.24 0,-12 0.48,0.48 -18.48,0 0.24,-0.48 0,12 -0.24,-0.24 0,0.72"
       style="fill:#000000;fill-opacity:1;fill-rule:nonzero;stroke:none"
       id="path384"
       inkscape:connector-curvature="0" /><text
       transform="matrix(0.84252636,0,0,-1,358.8,438.96)"
       id="text386"><tspan
         style="font-size:7.4368px;font-variant:normal;font-weight:normal;writing-mode:lr-tb;fill:#000000;fill-opacity:1;fill-rule:nonzero;stroke:none;font-family:Helvetica;-inkscape-font-specification:Helvetica"
         x="0 5.4120779"
         y="0"
         sodipodi:role="line"
         id="tspan388">TD</tspan></text>
<path
       d="m 204,508.08 -0.24,0 0,-12.24 0.24,-0.24 18.72,0 0,0.24 0.24,0 0,12 -0.24,0.24 -18.72,0 0,-0.72 18.48,0 -0.24,0.48 0,-12 0.24,0.24 -18.48,0 0.48,-0.24 0,12 -0.48,-0.48 0,0.72"
       style="fill:#000000;fill-opacity:1;fill-rule:nonzero;stroke:none"
       id="path390"
       inkscape:connector-curvature="0" /><text
       transform="matrix(0.84252636,0,0,-1,207.84,499.2)"
       id="text392"><tspan
         style="font-size:7.4368px;font-variant:normal;font-weight:normal;writing-mode:lr-tb;fill:#000000;fill-opacity:1;fill-rule:nonzero;stroke:none;font-family:Helvetica;-inkscape-font-specification:Helvetica"
         x="0 5.4120779"
         y="0"
         sodipodi:role="line"
         id="tspan394">TD</tspan></text>
<path
       d="m 245.28,495.36 -0.24,0.24 -0.48,0 0,-1.2 0.24,-0.48 0,-0.72 0.24,-0.24 0,-0.24 0.24,-0.24 0,-0.24 0.24,-0.48 0.72,-0.72 0.24,-0.48 0.24,-0.24 0.72,-0.48 0.48,-0.48 0.72,-0.24 0.24,-0.24 0.72,0 0.24,-0.24 0.96,0 0.24,-0.24 0.48,0.48 -0.24,0.24 -0.24,0 -0.24,0.24 -0.96,0 -0.48,0.24 -0.24,0 -0.24,0.24 -0.48,0.24 -0.24,0 -0.24,0.24 -0.72,0.48 -0.48,0.72 -0.48,0.48 0,0.24 -0.24,0.24 0,0.24 -0.24,0.24 0,0.24 -0.24,0.24 0,0.72 -0.24,0.24 0,0.96"
       style="fill:#000000;fill-opacity:1;fill-rule:nonzero;stroke:none"
       id="path396"
       inkscape:connector-curvature="0" /><path
       d="m 257.52,495.36 -0.24,0.24 -0.48,0 0,-0.24 -0.24,-0.24 0,-1.2 -0.24,-0.48 0,-0.24 -0.24,-0.48 -0.24,-0.24 0,-0.24 -0.24,-0.24 0,-0.24 -0.24,-0.24 0,-0.24 -0.48,-0.48 -0.72,-0.48 -0.24,-0.24 -0.24,0 -0.48,-0.24 -0.24,-0.24 -0.24,0 -0.48,-0.24 -0.96,0 -0.24,-0.24 -0.24,0 0,-0.48 0.24,-0.24 0.24,0.24 1.2,0 0.48,0.24 0.24,0 0.24,0.24 0.72,0.24 0.48,0.48 0.48,0.24 0.72,0.96 0.48,0.48 0,0.24 0.24,0.48 0.24,0.24 0.24,0.48 0,0.24 0.24,0.48 0,1.2 0.24,0.48"
       style="fill:#000000;fill-opacity:1;fill-rule:nonzero;stroke:none"
       id="path398"
       inkscape:connector-curvature="0" /><path
       d="m 229.92,508.08 -0.24,0 0,-12.24 0.24,-0.24 18.72,0 0,0.24 0.24,0 0,12 -0.24,0.24 -18.72,0 0,-0.72 18.48,0 -0.24,0.48 0,-12 0.24,0.24 -18.48,0 0.48,-0.24 0,12 -0.48,-0.48 0,0.72"
       style="fill:#000000;fill-opacity:1;fill-rule:nonzero;stroke:none"
       id="path400"
       inkscape:connector-curvature="0" /><text
       transform="matrix(0.84252636,0,0,-1,233.52,499.2)"
       id="text402"><tspan
         style="font-size:7.4368px;font-variant:normal;font-weight:normal;writing-mode:lr-tb;fill:#000000;fill-opacity:1;fill-rule:nonzero;stroke:none;font-family:Helvetica;-inkscape-font-specification:Helvetica"
         x="0 5.6969075"
         y="0"
         sodipodi:role="line"
         id="tspan404">TD</tspan></text>
<path
       d="m 255.84,508.08 -0.48,0 0,-12.24 0.24,-0.24 18.96,0 0,12.24 -0.24,0.24 -18.48,0 0,-0.72 18.48,0 -0.24,0.48 0,-12 0.24,0.24 -18.48,0 0.24,-0.24 0,12 -0.24,-0.48 0,0.72"
       style="fill:#000000;fill-opacity:1;fill-rule:nonzero;stroke:none"
       id="path406"
       inkscape:connector-curvature="0" /><text
       transform="matrix(0.84252636,0,0,-1,259.44,499.2)"
       id="text408"><tspan
         style="font-size:7.4368px;font-variant:normal;font-weight:normal;writing-mode:lr-tb;fill:#000000;fill-opacity:1;fill-rule:nonzero;stroke:none;font-family:Helvetica;-inkscape-font-specification:Helvetica"
         x="0 5.4120779"
         y="0"
         sodipodi:role="line"
         id="tspan410">TD</tspan></text>
<path
       d="m 219.6,523.44 -0.24,0.24 -0.48,0 0,-1.92 0.24,-0.48 0,-0.24 0.24,-0.24 0,-0.24 0.24,-0.24 0,-0.48 0.72,-0.72 0.24,-0.48 0.24,-0.24 0.96,-0.48 0.48,-0.48 0.48,-0.24 0.24,-0.24 0.72,0 0.24,-0.24 0.96,0 0.24,-0.24 0.48,0.48 -0.24,0.24 -0.24,0 -0.24,0.24 -0.96,0 -0.48,0.24 -0.24,0 -0.24,0.24 -0.48,0 -0.48,0.48 -0.72,0.48 -0.48,0.72 -0.48,0.48 0,0.24 -0.24,0.24 0,0.24 -0.24,0.24 0,0.24 -0.24,0.24 0,1.92"
       style="fill:#000000;fill-opacity:1;fill-rule:nonzero;stroke:none"
       id="path412"
       inkscape:connector-curvature="0" /><path
       d="m 231.6,523.44 -0.24,0.24 -0.48,0 0,-0.24 -0.24,-0.24 0,-1.92 -0.24,-0.48 -0.48,-0.48 0,-0.24 -0.48,-0.48 0,-0.24 -0.48,-0.48 -0.72,-0.48 -0.48,-0.48 -0.48,0 -0.24,-0.24 -0.24,0 -0.48,-0.24 -0.96,0 -0.24,-0.24 -0.24,0 0,-0.48 0.24,-0.24 0.24,0.24 1.2,0 0.48,0.24 0.24,0 0.96,0.48 0.48,0.48 0.48,0.24 1.2,1.2 0,0.24 0.24,0.24 0,0.48 0.24,0.24 0.24,0.48 0,0.24 0.24,0.48 0,1.2 0.24,0.48"
       style="fill:#000000;fill-opacity:1;fill-rule:nonzero;stroke:none"
       id="path414"
       inkscape:connector-curvature="0" /><path
       d="m 204,536.16 -0.24,0 0,-12.48 0.24,-0.24 18.48,0 0.48,0.48 0,12 -0.24,0.24 -18.72,0 0,-0.72 18.48,0 -0.24,0.48 0,-12 0.24,0.24 -18.48,0 0.48,-0.24 0,12 -0.48,-0.48 0,0.72"
       style="fill:#000000;fill-opacity:1;fill-rule:nonzero;stroke:none"
       id="path416"
       inkscape:connector-curvature="0" /><text
       transform="matrix(0.84252636,0,0,-1,207.84,527.28)"
       id="text418"><tspan
         style="font-size:7.4368px;font-variant:normal;font-weight:normal;writing-mode:lr-tb;fill:#000000;fill-opacity:1;fill-rule:nonzero;stroke:none;font-family:Helvetica;-inkscape-font-specification:Helvetica"
         x="0 5.4120779"
         y="0"
         sodipodi:role="line"
         id="tspan420">TD</tspan></text>
<path
       d="m 245.28,523.44 -0.24,0.24 -0.24,0 0,-0.24 -0.24,0 0,-0.96 0.24,-0.48 0,-0.72 0.24,-0.24 0,-0.24 0.24,-0.24 0,-0.24 0.24,-0.48 0.72,-0.72 0.24,-0.48 0.24,-0.24 0.72,-0.48 0.48,-0.48 0.72,-0.24 0.24,-0.24 0.72,0 0.24,-0.24 0.96,0 0.24,-0.24 0.48,0.48 -0.24,0.24 -0.24,0 -0.24,0.24 -0.96,0 -0.48,0.24 -0.24,0 -0.24,0.24 -0.48,0 -0.48,0.48 -0.72,0.48 -0.48,0.72 -0.48,0.48 0,0.24 -0.24,0.24 0,0.24 -0.24,0.24 0,0.24 -0.24,0.24 0,0.72 -0.24,0.24 0,0.96"
       style="fill:#000000;fill-opacity:1;fill-rule:nonzero;stroke:none"
       id="path422"
       inkscape:connector-curvature="0" /><path
       d="m 257.52,523.44 -0.24,0.24 -0.48,0 0,-0.24 -0.24,-0.24 0,-1.2 -0.24,-0.48 0,-0.24 -0.24,-0.48 -0.24,-0.24 0,-0.24 -0.24,-0.24 0,-0.24 -0.24,-0.24 0,-0.24 -0.48,-0.48 -0.72,-0.48 -0.48,-0.48 -0.48,0 -0.24,-0.24 -0.24,0 -0.48,-0.24 -0.96,0 -0.24,-0.24 -0.24,0 0,-0.48 0.24,-0.24 0.24,0.24 1.2,0 0.48,0.24 0.24,0 0.24,0.24 0.72,0.24 0.48,0.48 0.48,0.24 0.72,0.96 0.48,0.48 0,0.24 0.24,0.48 0.24,0.24 0.24,0.48 0,0.24 0.24,0.48 0,1.2 0.24,0.48"
       style="fill:#000000;fill-opacity:1;fill-rule:nonzero;stroke:none"
       id="path424"
       inkscape:connector-curvature="0" /><path
       d="m 229.92,536.16 -0.24,0 0,-12.48 0.24,-0.24 18.48,0 0.48,0.48 0,12 -0.24,0.24 -18.72,0 0,-0.72 18.48,0 -0.24,0.48 0,-12 0.24,0.24 -18.48,0 0.48,-0.24 0,12 -0.48,-0.48 0,0.72"
       style="fill:#000000;fill-opacity:1;fill-rule:nonzero;stroke:none"
       id="path426"
       inkscape:connector-curvature="0" /><text
       transform="matrix(0.84252636,0,0,-1,233.52,527.28)"
       id="text428"><tspan
         style="font-size:7.4368px;font-variant:normal;font-weight:normal;writing-mode:lr-tb;fill:#000000;fill-opacity:1;fill-rule:nonzero;stroke:none;font-family:Helvetica;-inkscape-font-specification:Helvetica"
         x="0 5.6969075 30.763174 36.175251"
         y="0"
         sodipodi:role="line"
         id="tspan430">TDTD</tspan></text>
<path
       d="m 255.84,536.16 -0.48,0 0,-12.48 0.24,-0.24 18.72,0 0,0.24 0.24,0 0,12.24 -0.24,0.24 -18.48,0 0,-0.72 18.48,0 -0.24,0.48 0,-12 0.24,0.24 -18.48,0 0.24,-0.24 0,12 -0.24,-0.48 0,0.72"
       style="fill:#000000;fill-opacity:1;fill-rule:nonzero;stroke:none"
       id="path432"
       inkscape:connector-curvature="0" /><path
       d="m 447.6,521.76 18.48,0 0,12 -18.48,0 0,-12 z"
       style="fill:#ffffff;fill-opacity:1;fill-rule:nonzero;stroke:none"
       id="path434"
       inkscape:connector-curvature="0" /><path
       d="m 447.6,534 -0.48,0 0,-12.48 0.24,-0.24 18.72,0 0.48,0.48 0,12 -0.24,0.24 -18.72,0 0,-0.72 18.48,0 -0.24,0.48 0,-12 0.24,0.24 -18.48,0 0.24,-0.24 0,12 -0.24,-0.48 0,0.72"
       style="fill:#000000;fill-opacity:1;fill-rule:nonzero;stroke:none"
       id="path436"
       inkscape:connector-curvature="0" /><text
       transform="matrix(0.87447917,0,0,-1,451.44,524.64)"
       id="text438"><tspan
         style="font-size:7.67999983px;font-variant:normal;font-weight:normal;writing-mode:lr-tb;fill:#000000;fill-opacity:1;fill-rule:nonzero;stroke:none;font-family:Helvetica;-inkscape-font-specification:Helvetica"
         x="0 6.8611202"
         y="0"
         sodipodi:role="line"
         id="tspan440">QH</tspan></text>
<path
       d="m 402.48,521.76 18.48,0 0,12 -18.48,0 0,-12 z"
       style="fill:#ffffff;fill-opacity:1;fill-rule:nonzero;stroke:none"
       id="path442"
       inkscape:connector-curvature="0" /><path
       d="m 402.48,534 -0.48,0 0,-12.48 0.24,-0.24 18.72,0 0,0.24 0.24,0 0,12.24 -0.24,0.24 -18.48,0 0,-0.72 18.48,0 -0.48,0.48 0,-12 0.48,0.24 -18.48,0 0.24,-0.24 0,12 -0.24,-0.48 0,0.72"
       style="fill:#000000;fill-opacity:1;fill-rule:nonzero;stroke:none"
       id="path444"
       inkscape:connector-curvature="0" /><text
       transform="matrix(0.87447917,0,0,-1,406.08,524.64)"
       id="text446"><tspan
         style="font-size:7.67999983px;font-variant:normal;font-weight:normal;writing-mode:lr-tb;fill:#000000;fill-opacity:1;fill-rule:nonzero;stroke:none;font-family:Helvetica;-inkscape-font-specification:Helvetica"
         x="0 6.8611202"
         y="0"
         sodipodi:role="line"
         id="tspan448">QH</tspan></text>
<path
       d="m 357.12,521.76 18.48,0 0,12 -18.48,0 0,-12 z"
       style="fill:#ffffff;fill-opacity:1;fill-rule:nonzero;stroke:none"
       id="path450"
       inkscape:connector-curvature="0" /><path
       d="m 357.12,534 -0.48,0 0,-12.48 0.24,-0.24 18.72,0 0,0.24 0.24,0 0,12.24 -0.24,0.24 -18.48,0 0,-0.72 18.48,0 -0.24,0.48 0,-12 0.24,0.24 -18.48,0 0.24,-0.24 0,12 -0.24,-0.48 0,0.72"
       style="fill:#000000;fill-opacity:1;fill-rule:nonzero;stroke:none"
       id="path452"
       inkscape:connector-curvature="0" /><text
       transform="matrix(0.87447917,0,0,-1,360.96,524.64)"
       id="text454"><tspan
         style="font-size:7.67999983px;font-variant:normal;font-weight:normal;writing-mode:lr-tb;fill:#000000;fill-opacity:1;fill-rule:nonzero;stroke:none;font-family:Helvetica;-inkscape-font-specification:Helvetica"
         x="0 6.8611202"
         y="0"
         sodipodi:role="line"
         id="tspan456">QH</tspan></text>
<text
       transform="matrix(0.87063515,0,0,-1,188.64,613.68)"
       id="text458"><tspan
         style="font-size:7.1967001px;font-variant:normal;font-weight:normal;writing-mode:lr-tb;fill:#000000;fill-opacity:1;fill-rule:nonzero;stroke:none;font-family:Helvetica;-inkscape-font-specification:Helvetica"
         x="0 4.4103432"
         y="0"
         sodipodi:role="line"
         id="tspan460">00</tspan></text>
<path
       d="m 186.72,622.56 0,0.24 -0.72,0 0,-13.44 0.24,-0.24 0.24,0 0,0.24 0.24,0 0,13.2"
       style="fill:#000000;fill-opacity:1;fill-rule:nonzero;stroke:none"
       id="path462"
       inkscape:connector-curvature="0" /><path
       d="m 318.24,523.44 -0.24,0.24 -0.24,0 0,-0.24 -0.24,0 0,-32.64 0.24,-0.24 0.24,0 0,0.24 0.24,0 0,32.64"
       style="fill:#000000;fill-opacity:1;fill-rule:nonzero;stroke:none"
       id="path464"
       inkscape:connector-curvature="0" /><text
       transform="matrix(0.799604,0,0,-1,330.72,538.8)"
       id="text466"><tspan
         style="font-size:6.7171998px;font-variant:normal;font-weight:normal;writing-mode:lr-tb;fill:#000000;fill-opacity:1;fill-rule:nonzero;stroke:none;font-family:Helvetica;-inkscape-font-specification:Helvetica"
         x="0 3.6556921 5.0678396 8.7235317"
         y="0"
         sodipodi:role="line"
         id="tspan468">Link</tspan><tspan
         style="font-size:6.7171998px;font-variant:normal;font-weight:normal;writing-mode:lr-tb;fill:#000000;fill-opacity:1;fill-rule:nonzero;stroke:none;font-family:Helvetica;-inkscape-font-specification:Helvetica"
         x="0 4.3982306 8.0508518 9.4599285 13.11255 14.89779 18.550411"
         y="8.8799467"
         sodipodi:role="line"
         id="tspan470">Pointer</tspan><tspan
         style="font-size:6.7171998px;font-variant:normal;font-weight:normal;writing-mode:lr-tb;fill:#000000;fill-opacity:1;fill-rule:nonzero;stroke:none;font-family:Helvetica;-inkscape-font-specification:Helvetica"
         x="-13.507137 -9.0742655 -7.630547 -3.9432843 1.6046431 5.2919064 8.9791689"
         y="25.919949"
         sodipodi:role="line"
         id="tspan472">Element</tspan><tspan
         style="font-size:6.7171998px;font-variant:normal;font-weight:normal;writing-mode:lr-tb;fill:#000000;fill-opacity:1;fill-rule:nonzero;stroke:none;font-family:Helvetica;-inkscape-font-specification:Helvetica"
         x="-13.507137 -9.8514452 -8.4392986 -4.7836061"
         y="34.799892"
         sodipodi:role="line"
         id="tspan474">Link</tspan><tspan
         style="font-size:6.7171998px;font-variant:normal;font-weight:normal;writing-mode:lr-tb;fill:#000000;fill-opacity:1;fill-rule:nonzero;stroke:none;font-family:Helvetica;-inkscape-font-specification:Helvetica"
         x="-13.507137 -9.1089067 -5.4562855 -4.0472088 -0.39458752 1.3906523 5.0432739"
         y="43.67984"
         sodipodi:role="line"
         id="tspan476">Pointer</tspan></text>
<path
       d="m 327.36,468.96 -0.24,0 0,-0.48 0.24,-0.24 0.48,0.24 1.2,0 0.24,0.24 0.48,0 0.96,0.48 0.24,0.24 0.24,0 0.48,0.48 1.2,0.96 0.24,0.48 0,0.24 0.72,0.72 0,0.24 0.24,0.48 0,0.48 0.24,0.72 0,0.72 -0.24,0.24 -0.24,0 0,-0.24 -0.24,0 0,-0.24 0,0.24 0,-0.72 -0.24,-0.48 0,-0.48 -0.24,-0.24 0,-0.24 -0.24,-0.24 0,-0.48 -0.48,-0.48 0,-0.24 -0.72,-0.48 -0.48,-0.48 -0.24,0 -0.48,-0.48 -0.24,0 -0.24,-0.24 -0.48,-0.24 -0.48,0 0,-0.24 -1.44,0 -0.24,-0.24"
       style="fill:#000000;fill-opacity:1;fill-rule:nonzero;stroke:none"
       id="path478"
       inkscape:connector-curvature="0" /><path
       d="m 327.36,481.2 -0.24,0 0,-0.48 0.24,-0.24 0.96,0 0.24,-0.24 0.48,0 0.96,-0.48 0.24,0 0.24,-0.24 0.24,0 0.24,-0.24 0.24,0 1.2,-1.2 0,-0.24 0.48,-0.48 0.48,-0.96 0,-0.48 0.24,-0.48 0,-0.72 0.24,-0.24 0.48,0 0,0.96 -0.24,0.72 0,0.48 -0.24,0.48 -0.48,0.72 -0.24,0.48 -1.44,1.44 -0.24,0 -0.72,0.72 -0.48,0 -0.96,0.48 -0.48,0 -0.48,0.24 -0.96,0"
       style="fill:#000000;fill-opacity:1;fill-rule:nonzero;stroke:none"
       id="path480"
       inkscape:connector-curvature="0" /><path
       d="m 307.44,490.8 -0.24,0 0,-12.24 0.24,-0.24 18.96,0 0,12.24 -0.24,0.24 -18.72,0 0,-0.48 18.72,0 -0.48,0.24 0,-12 0.48,0.48 -18.72,0 0.48,-0.48 0,12 -0.48,-0.24 0,0.48"
       style="fill:#000000;fill-opacity:1;fill-rule:nonzero;stroke:none"
       id="path482"
       inkscape:connector-curvature="0" /><text
       transform="matrix(0.84252636,0,0,-1,311.28,481.92)"
       id="text484"><tspan
         style="font-size:7.4368px;font-variant:normal;font-weight:normal;writing-mode:lr-tb;fill:#000000;fill-opacity:1;fill-rule:nonzero;stroke:none;font-family:Helvetica;-inkscape-font-specification:Helvetica"
         x="0 5.4120779"
         y="0"
         sodipodi:role="line"
         id="tspan486">TD</tspan></text>
<path
       d="m 327.36,447.6 -0.24,0 0,-0.48 0.24,-0.24 0.72,0 0.96,0.24 0.24,0 0.96,0.48 0.48,0 0.72,0.72 0.24,0 1.2,1.2 0.24,0.48 0.24,0.24 0.48,0.72 0,0.24 0.24,0.24 0,0.48 0.24,0.72 0,0.72 -0.24,0.24 -0.24,0 0,-0.24 -0.24,0 0,-0.24 0,0.24 0,-0.72 -0.24,-0.48 0,-0.48 -0.24,-0.24 0,-0.24 -0.24,-0.48 -0.24,-0.24 -0.24,-0.48 -1.2,-1.2 -0.24,0 -0.24,-0.24 -0.24,0 -0.24,-0.24 -0.24,0 -0.96,-0.48 -0.96,-0.24 -0.72,0"
       style="fill:#000000;fill-opacity:1;fill-rule:nonzero;stroke:none"
       id="path488"
       inkscape:connector-curvature="0" /><path
       d="m 327.36,459.6 -0.24,0 0,-0.48 0.24,-0.24 1.68,0 0,-0.24 0.48,0 0.24,-0.24 0.24,0 0.24,-0.24 0.24,0 0.48,-0.48 0.24,0 0.48,-0.48 0.48,-0.24 0.24,-0.24 0,-0.24 0.48,-0.48 0.24,-0.72 0.24,-0.48 0,-0.48 0.24,-0.24 0,-0.96 0.24,-0.24 0.48,0 0,1.44 -0.24,0.24 0,0.48 -0.24,0.72 -0.48,0.48 -0.48,0.96 -0.72,0.48 -0.96,0.96 -0.24,0 -0.24,0.24 -0.48,0.24 -0.24,0 -0.24,0.24 -0.48,0 -0.24,0.24 -1.68,0"
       style="fill:#000000;fill-opacity:1;fill-rule:nonzero;stroke:none"
       id="path490"
       inkscape:connector-curvature="0" /><path
       d="m 307.44,469.44 -0.24,0 0,-12.48 0.24,-0.24 18.72,0 0,0.24 0.24,0 0,12.24 -0.24,0.24 -18.72,0 0,-0.72 18.72,0 -0.48,0.24 0,-11.76 0.48,0.24 -18.72,0 0.48,-0.24 0,11.76 -0.48,-0.24 0,0.72"
       style="fill:#000000;fill-opacity:1;fill-rule:nonzero;stroke:none"
       id="path492"
       inkscape:connector-curvature="0" /><text
       transform="matrix(0.84252636,0,0,-1,311.28,460.32)"
       id="text494"><tspan
         style="font-size:7.4368px;font-variant:normal;font-weight:normal;writing-mode:lr-tb;fill:#000000;fill-opacity:1;fill-rule:nonzero;stroke:none;font-family:Helvetica;-inkscape-font-specification:Helvetica"
         x="0 5.4120779"
         y="0"
         sodipodi:role="line"
         id="tspan496">TD</tspan></text>
<path
       d="m 307.44,447.84 -0.24,0 0,-12.48 0.24,-0.24 18.96,0 0,12.48 -0.24,0.24 -18.72,0 0,-0.72 18.72,0 -0.48,0.24 0,-12 0.48,0.48 -18.72,0 0.48,-0.48 0,12 -0.48,-0.24 0,0.72"
       style="fill:#000000;fill-opacity:1;fill-rule:nonzero;stroke:none"
       id="path498"
       inkscape:connector-curvature="0" /><text
       transform="matrix(0.84252636,0,0,-1,311.28,438.96)"
       id="text500"><tspan
         style="font-size:7.4368px;font-variant:normal;font-weight:normal;writing-mode:lr-tb;fill:#000000;fill-opacity:1;fill-rule:nonzero;stroke:none;font-family:Helvetica;-inkscape-font-specification:Helvetica"
         x="0 5.4120779"
         y="0"
         sodipodi:role="line"
         id="tspan502">TD</tspan></text>
<path
       d="m 309.6,521.76 18.72,0 0,12 -18.72,0 0,-12 z"
       style="fill:#ffffff;fill-opacity:1;fill-rule:nonzero;stroke:none"
       id="path504"
       inkscape:connector-curvature="0" /><path
       d="m 309.6,534 -0.24,0 0,-12.48 0.24,-0.24 18.72,0 0,0.24 0.24,0 0,12.24 -0.24,0.24 -18.72,0 0,-0.72 18.72,0 -0.48,0.48 0,-12 0.48,0.24 -18.72,0 0.48,-0.24 0,12 -0.48,-0.48 0,0.72"
       style="fill:#000000;fill-opacity:1;fill-rule:nonzero;stroke:none"
       id="path506"
       inkscape:connector-curvature="0" /><text
       transform="matrix(0.87447917,0,0,-1,313.44,524.64)"
       id="text508"><tspan
         style="font-size:7.67999983px;font-variant:normal;font-weight:normal;writing-mode:lr-tb;fill:#000000;fill-opacity:1;fill-rule:nonzero;stroke:none;font-family:Helvetica;-inkscape-font-specification:Helvetica"
         x="0 6.8611202"
         y="0"
         sodipodi:role="line"
         id="tspan510">QH</tspan></text>
<path
       d="m 374.88,423.84 -0.24,0 0,-0.48 0.24,-0.24 0.72,0 0.48,0.24 0.72,0 0.96,0.48 0.24,0 0.48,0.24 0.72,0.48 0.48,0.48 0.72,0.96 0.72,0.72 0,0.72 0.48,1.44 0,0.72 -0.24,0.24 -0.24,0 0,-0.24 -0.24,-0.24 0,-0.96 -0.24,-0.72 -0.24,-0.24 0,-0.24 -0.24,-0.48 -0.24,-0.24 -0.72,-0.96 -0.48,-0.48 -0.72,-0.48 -0.24,0 -0.24,-0.24 -0.96,-0.24 -0.48,0 -0.48,-0.24 -0.72,0"
       style="fill:#000000;fill-opacity:1;fill-rule:nonzero;stroke:none"
       id="path512"
       inkscape:connector-curvature="0" /><path
       d="m 374.88,435.84 -0.24,0 0,-0.48 0.24,-0.24 1.44,0 0.24,-0.24 0.24,0 0.72,-0.24 0.24,-0.24 0.24,0 0.72,-0.48 0.48,-0.48 0,-0.24 0.96,-0.96 0.24,-0.48 0.24,-0.24 0,-0.48 0.24,-0.48 0,-0.72 0.24,-0.24 0,-0.48 0.24,0 0,0.24 0.24,0 0,0.72 -0.24,0.72 0,0.48 -0.24,0.48 0,0.24 -0.24,0.48 -0.48,0.48 -0.24,0.48 -0.96,0.96 -0.72,0.48 -0.48,0.24 -0.24,0 -0.72,0.24 -0.24,0.24 -0.72,0 -0.24,0.24 -0.96,0"
       style="fill:#000000;fill-opacity:1;fill-rule:nonzero;stroke:none"
       id="path514"
       inkscape:connector-curvature="0" /><path
       d="m 374.88,402.24 -0.24,0 0,-0.48 0.24,-0.24 0.48,0.24 1.2,0 0.24,0.24 0.96,0.24 0.24,0 0.48,0.24 0.72,0.48 0.72,0.72 0.48,0.72 0.48,0.48 0.24,0.72 0,0.24 0.24,0.48 0,0.48 0.24,0.48 0,0.72 -0.24,0.24 -0.24,0 0,-0.48 0,0.24 -0.24,-0.48 0,-0.96 -0.24,-0.48 -0.24,-0.24 -0.24,-0.48 0,-0.24 -1.44,-1.44 -0.72,-0.48 -0.24,-0.24 -0.24,0 -0.96,-0.48 -0.48,0 -0.48,-0.24 -0.72,0"
       style="fill:#000000;fill-opacity:1;fill-rule:nonzero;stroke:none"
       id="path516"
       inkscape:connector-curvature="0" /><path
       d="m 374.88,414.24 -0.24,0 0,-0.48 0.24,-0.24 1.44,0 0.24,-0.24 0.24,0 0.48,-0.24 0.48,0 0.24,-0.24 0.24,0 1.92,-1.92 0,-0.24 0.24,-0.48 0.24,-0.24 0,-0.24 0.24,-0.48 0,-0.96 0.24,-0.48 0,-0.24 0.48,0 0,1.44 -0.24,0.24 0,0.72 -0.24,0.24 0,0.24 -0.24,0.48 -0.48,0.48 -0.48,0.96 -0.24,0.24 -0.96,0.48 -0.24,0.24 -0.48,0.24 -0.24,0.24 -0.24,0 -0.48,0.24 -0.24,0 -0.24,0.24 -1.68,0"
       style="fill:#000000;fill-opacity:1;fill-rule:nonzero;stroke:none"
       id="path518"
       inkscape:connector-curvature="0" /><path
       d="m 354.96,424.08 -0.48,0 0,-12.48 0.24,-0.24 18.72,0 0,0.24 0.24,0 0,12.24 -0.24,0.24 -18.48,0 0,-0.72 18.48,0 -0.48,0.48 0,-12 0.48,0.24 -18.48,0 0.24,-0.24 0,12 -0.24,-0.48 0,0.72"
       style="fill:#000000;fill-opacity:1;fill-rule:nonzero;stroke:none"
       id="path520"
       inkscape:connector-curvature="0" /><text
       transform="matrix(0.84252636,0,0,-1,358.8,414.96)"
       id="text522"><tspan
         style="font-size:7.4368px;font-variant:normal;font-weight:normal;writing-mode:lr-tb;fill:#000000;fill-opacity:1;fill-rule:nonzero;stroke:none;font-family:Helvetica;-inkscape-font-specification:Helvetica"
         x="0 5.4120779"
         y="0"
         sodipodi:role="line"
         id="tspan524">TD</tspan></text>
<path
       d="m 354.96,402.48 -0.24,0 0,-0.24 -0.24,0 0,-12 0.24,-0.24 18.96,0 0,12.24 -0.24,0.24 -18.48,0 0,-0.72 18.48,0 -0.48,0.24 0,-11.76 0.48,0.48 -18.48,0 0.24,-0.48 0,11.76 -0.24,-0.24 0,0.72"
       style="fill:#000000;fill-opacity:1;fill-rule:nonzero;stroke:none"
       id="path526"
       inkscape:connector-curvature="0" /><text
       transform="matrix(0.87063515,0,0,-1,358.8,393.6)"
       id="text528"><tspan
         style="font-size:7.1967001px;font-variant:normal;font-weight:normal;writing-mode:lr-tb;fill:#000000;fill-opacity:1;fill-rule:nonzero;stroke:none;font-family:Helvetica;-inkscape-font-specification:Helvetica"
         x="0 5.2373471"
         y="0"
         sodipodi:role="line"
         id="tspan530">TD</tspan></text>
<path
       d="m 467.52,426 -0.24,0 0,-0.48 0.24,-0.24 0.72,0 0.48,0.24 0.72,0 0.96,0.48 0.24,0 0.48,0.24 0.72,0.48 0.48,0.48 0.72,0.96 0.48,0.48 0.24,0.48 0,0.24 0.24,0.24 0,0.72 0.24,0.72 0,0.72 -0.24,0.24 -0.24,0 0,-0.24 -0.24,-0.24 0,-0.96 -0.24,-0.72 -0.24,-0.24 0,-0.24 -0.24,-0.24 0,-0.24 -0.24,-0.24 -0.72,-0.96 -0.48,-0.48 -0.72,-0.48 -0.48,0 -0.96,-0.48 -0.48,0 -0.48,-0.24 -0.72,0"
       style="fill:#000000;fill-opacity:1;fill-rule:nonzero;stroke:none"
       id="path532"
       inkscape:connector-curvature="0" /><path
       d="m 467.52,438 -0.24,0 0,-0.48 0.24,-0.24 1.44,0 0.24,-0.24 0.24,0 0.72,-0.24 0.24,-0.24 0.24,0 0.72,-0.48 0.48,-0.48 0,-0.24 0.24,-0.24 0.48,-0.24 0.24,-0.24 0,-0.24 0.24,-0.48 0.24,-0.24 0,-0.48 0.24,-0.48 0,-0.72 0.24,-0.24 0,-0.24 0.24,-0.24 0,0.24 0.24,0 0,0.72 -0.24,0.72 0,0.96 -0.24,0.24 -0.24,0.48 -0.48,0.48 -0.24,0.48 -0.96,0.96 -0.72,0.48 -0.48,0.24 -0.24,0.24 -0.72,0.24 -0.96,0 -0.24,0.24 -0.96,0"
       style="fill:#000000;fill-opacity:1;fill-rule:nonzero;stroke:none"
       id="path534"
       inkscape:connector-curvature="0" /><path
       d="m 447.6,426.24 -0.48,0 0,-12.48 0.24,-0.24 18.72,0 0.48,0.48 0,12 -0.24,0.24 -18.72,0 0,-0.72 18.48,0 -0.24,0.48 0,-12 0.24,0.24 -18.48,0 0.24,-0.24 0,12 -0.24,-0.48 0,0.72"
       style="fill:#000000;fill-opacity:1;fill-rule:nonzero;stroke:none"
       id="path536"
       inkscape:connector-curvature="0" /><text
       transform="matrix(0.84252636,0,0,-1,451.44,417.12)"
       id="text538"><tspan
         style="font-size:7.4368px;font-variant:normal;font-weight:normal;writing-mode:lr-tb;fill:#000000;fill-opacity:1;fill-rule:nonzero;stroke:none;font-family:Helvetica;-inkscape-font-specification:Helvetica"
         x="0 5.4120779"
         y="0"
         sodipodi:role="line"
         id="tspan540">TD</tspan></text>
<path
       d="m 97.92,463.2 -0.24,0 0,-0.48 82.56,0 0,0.24 -0.24,0.24 -82.08,0"
       style="fill:#000000;fill-opacity:1;fill-rule:nonzero;stroke:none"
       id="path542"
       inkscape:connector-curvature="0" /><text
       transform="matrix(0.87447917,0,0,-1,171.36,453.6)"
       id="text544"><tspan
         style="font-size:7.67999983px;font-variant:normal;font-weight:normal;writing-mode:lr-tb;fill:#000000;fill-opacity:1;fill-rule:nonzero;stroke:none;font-family:Helvetica;-inkscape-font-specification:Helvetica"
         x="0"
         y="0"
         id="tspan546">T</tspan></text>
<text
       transform="matrix(0.81625,0,0,-1,160.56,453.6)"
       id="text548"><tspan
         style="font-size:7.67999983px;font-variant:normal;font-weight:normal;writing-mode:lr-tb;fill:#000000;fill-opacity:1;fill-rule:nonzero;stroke:none;font-family:Helvetica;-inkscape-font-specification:Helvetica"
         x="0 -68.806175 -64.045731 -61.420319 -57.082272 -50.616863 -46.278816 -44.239586 -39.049057 -34.711006 -32.93808 -28.600033 -26.397024 -22.058975"
         y="0"
         sodipodi:role="line"
         id="tspan550">QFrame Pointer</tspan></text>
<path
       d="m 219.6,467.28 0,0.24 -0.24,0.24 -0.48,0 0,-2.16 0.24,-0.24 0,-0.24 0.24,-0.24 0,-0.48 0.24,-0.24 0,-0.24 0.24,-0.24 0.24,-0.48 1.2,-1.2 0.48,-0.24 0.48,-0.48 0.96,-0.48 0.48,0 0.24,-0.24 0.96,0 0.24,-0.24 0.48,0.48 -0.24,0.24 -0.24,0 -0.24,0.24 -0.96,0 -1.92,0.96 -1.68,1.68 0,0.24 -0.24,0.24 0,0.48 -0.24,0.24 0,0.24 -0.24,0.24 0,1.68"
       style="fill:#000000;fill-opacity:1;fill-rule:nonzero;stroke:none"
       id="path552"
       inkscape:connector-curvature="0" /><path
       d="m 231.6,467.28 0,0.24 -0.24,0.24 -0.48,0 0,-0.48 0,0.24 -0.24,-0.48 0,-1.68 -0.48,-0.96 -0.24,-0.24 0,-0.24 -1.68,-1.68 -0.24,0 -0.24,-0.24 -0.48,-0.24 -0.24,-0.24 -0.24,0 -0.48,-0.24 -0.96,0 -0.24,-0.24 -0.24,0 0,-0.48 0.24,-0.24 0.24,0.24 1.2,0 0.48,0.24 0.24,0 0.96,0.48 0.48,0.48 1.68,1.44 0,0.48 0.24,0.24 0,0.24 0.24,0.24 0.24,0.72 0,0.24 0.24,0.24 0,1.44 0.24,0.24"
       style="fill:#000000;fill-opacity:1;fill-rule:nonzero;stroke:none"
       id="path554"
       inkscape:connector-curvature="0" /><path
       d="m 204,480 -0.24,0 0,-12.24 0.24,-0.24 18.48,0 0.48,0.48 0,11.76 -0.24,0.24 -18.72,0 0,-0.72 18.48,0 -0.24,0.48 0,-11.76 0.24,0.24 -18.48,0 0.48,-0.24 0,11.76 -0.48,-0.48 0,0.72"
       style="fill:#000000;fill-opacity:1;fill-rule:nonzero;stroke:none"
       id="path556"
       inkscape:connector-curvature="0" /><text
       transform="matrix(0.87063515,0,0,-1,207.84,471.36)"
       id="text558"><tspan
         style="font-size:7.1967001px;font-variant:normal;font-weight:normal;writing-mode:lr-tb;fill:#000000;fill-opacity:1;fill-rule:nonzero;stroke:none;font-family:Helvetica;-inkscape-font-specification:Helvetica"
         x="0 5.2373471"
         y="0"
         sodipodi:role="line"
         id="tspan560">TD</tspan></text>
<path
       d="m 245.28,467.28 0,0.24 -0.24,0.24 -0.24,0 0,-0.24 -0.24,0 0,-1.2 0.24,-0.24 0,-0.72 0.24,-0.24 0,-0.24 0.24,-0.48 0,-0.24 0.48,-0.48 0.24,-0.48 1.92,-1.92 0.72,-0.24 0.48,-0.24 0.48,0 0.24,-0.24 0.96,0 0.24,-0.24 0.48,0.48 -0.24,0.24 -0.24,0 -0.24,0.24 -0.96,0 -1.92,0.96 -0.48,0.48 -0.48,0.24 -0.24,0.48 -0.48,0.48 0,0.24 -0.24,0.24 0,0.48 -0.24,0.24 0,0.24 -0.24,0.24 0,0.48 -0.24,0.48 0,0.72"
       style="fill:#000000;fill-opacity:1;fill-rule:nonzero;stroke:none"
       id="path562"
       inkscape:connector-curvature="0" /><path
       d="m 257.52,467.28 0,0.24 -0.24,0.24 -0.48,0 0,-0.48 0,0.24 -0.24,-0.48 0,-1.2 -0.24,-0.24 0,-0.24 -0.48,-0.96 0,-0.24 -0.24,-0.24 0,-0.24 -1.44,-1.44 -0.24,0 -0.24,-0.24 -0.48,-0.24 -0.24,-0.24 -0.24,0 -0.48,-0.24 -0.96,0 -0.24,-0.24 -0.24,0 0,-0.48 0.24,-0.24 0.24,0.24 1.2,0 0.48,0.24 0.24,0 0.24,0.24 0.72,0.24 1.92,1.92 0.24,0.48 0,0.24 0.48,0.48 0.24,0.72 0,0.24 0.24,0.24 0,1.44 0.24,0.24"
       style="fill:#000000;fill-opacity:1;fill-rule:nonzero;stroke:none"
       id="path564"
       inkscape:connector-curvature="0" /><path
       d="m 229.92,480 -0.24,0 0,-12.24 0.24,-0.24 18.48,0 0.48,0.48 0,11.76 -0.24,0.24 -18.72,0 0,-0.72 18.48,0 -0.24,0.48 0,-11.76 0.24,0.24 -18.48,0 0.48,-0.24 0,11.76 -0.48,-0.48 0,0.72"
       style="fill:#000000;fill-opacity:1;fill-rule:nonzero;stroke:none"
       id="path566"
       inkscape:connector-curvature="0" /><text
       transform="matrix(0.87063515,0,0,-1,233.52,471.36)"
       id="text568"><tspan
         style="font-size:7.1967001px;font-variant:normal;font-weight:normal;writing-mode:lr-tb;fill:#000000;fill-opacity:1;fill-rule:nonzero;stroke:none;font-family:Helvetica;-inkscape-font-specification:Helvetica"
         x="0 5.5129805"
         y="0"
         sodipodi:role="line"
         id="tspan570">TD</tspan></text>
<path
       d="m 255.84,480 -0.48,0 0,-12.24 0.24,-0.24 18.72,0 0,0.24 0.24,0 0,12 -0.24,0.24 -18.48,0 0,-0.72 18.48,0 -0.24,0.48 0,-11.76 0.24,0.24 -18.48,0 0.24,-0.24 0,11.76 -0.24,-0.48 0,0.72"
       style="fill:#000000;fill-opacity:1;fill-rule:nonzero;stroke:none"
       id="path572"
       inkscape:connector-curvature="0" /><text
       transform="matrix(0.87063515,0,0,-1,259.44,471.36)"
       id="text574"><tspan
         style="font-size:7.1967001px;font-variant:normal;font-weight:normal;writing-mode:lr-tb;fill:#000000;fill-opacity:1;fill-rule:nonzero;stroke:none;font-family:Helvetica;-inkscape-font-specification:Helvetica"
         x="0 5.2373471"
         y="0"
         sodipodi:role="line"
         id="tspan576">TD</tspan></text>
<path
       d="m 274.32,474 0,-0.24 0.24,-0.24 0.24,0 0.24,0.24 32.16,40.8 0.24,0.24 -0.24,0 0,0.24 -0.48,0 -32.4,-41.04"
       style="fill:#000000;fill-opacity:1;fill-rule:nonzero;stroke:none"
       id="path578"
       inkscape:connector-curvature="0" /><path
       d="m 299.76,511.68 7.92,3.6 -1.92,-8.4 -6,4.8"
       style="fill:#000000;fill-opacity:1;fill-rule:evenodd;stroke:none"
       id="path580"
       inkscape:connector-curvature="0" /><path
       d="m 300,511.92 -0.24,-0.48 7.92,3.6 -0.48,0.48 -1.68,-8.64 0.48,0.24 -6,4.8 -0.96,-0.24 6.96,-5.52 2.16,9.84 -9.12,-4.32 0.96,0.24"
       style="fill:#000000;fill-opacity:1;fill-rule:nonzero;stroke:none"
       id="path582"
       inkscape:connector-curvature="0" /><path
       d="m 179.76,456.96 -0.24,-0.24 0,-0.48 0.72,0 21.36,17.28 0,0.24 0.24,0 -0.24,0.24 -0.48,0 -21.36,-17.04"
       style="fill:#000000;fill-opacity:1;fill-rule:nonzero;stroke:none"
       id="path584"
       inkscape:connector-curvature="0" /><path
       d="m 193.44,472.56 8.64,1.68 -3.6,-7.92 -5.04,6.24"
       style="fill:#000000;fill-opacity:1;fill-rule:evenodd;stroke:none"
       id="path586"
       inkscape:connector-curvature="0" /><path
       d="m 193.68,472.8 -0.24,-0.72 8.64,1.92 -0.24,0.48 -3.84,-7.92 0.72,0 -5.04,6.24 -0.96,0 5.76,-7.2 4.32,9.36 -10.08,-2.16 0.96,0"
       style="fill:#000000;fill-opacity:1;fill-rule:nonzero;stroke:none"
       id="path588"
       inkscape:connector-curvature="0" /><path
       d="m 463.68,579.84 0,-0.24 0.24,-0.24 0.48,0.48 -0.24,0.48 0,0.24 -0.24,0.48 -0.24,0.24 -0.48,0.24 -0.72,0.72 -0.48,0.24 -1.44,0.48 -0.48,0.24 -0.72,0.24 -0.96,0.24 -0.72,0.24 -1.92,0.48 -0.72,0.24 -1.2,0 -0.96,0.24 -2.4,0.48 -0.96,0 -1.44,0.24 -2.4,0.24 -1.2,0 -1.44,0.24 -7.2,0 0,-0.48 0.24,-0.24 6.96,0 1.2,-0.24 1.44,0 2.4,-0.24 1.2,-0.24 1.2,0 1.2,-0.24 0.96,-0.24 1.2,0 2.88,-0.72 0.72,-0.24 0.96,-0.24 1.44,-0.48 0.48,-0.24 0.72,-0.24 1.92,-0.96 0.24,-0.24 0,-0.24 0.24,-0.24 0,-0.24 0.24,-0.24"
       style="fill:#000000;fill-opacity:1;fill-rule:nonzero;stroke:none"
       id="path590"
       inkscape:connector-curvature="0" /><path
       d="m 408.72,591.84 0,0.24 -0.24,0.24 -0.24,0 0,-0.24 -0.24,0 0,-0.48 0.24,-0.48 0.24,-0.24 0,-0.48 1.92,-0.96 0.48,-0.48 3.6,-1.2 2.88,-0.72 0.96,0 1.2,-0.24 0.96,-0.24 1.2,-0.24 2.4,-0.24 1.2,0 1.2,-0.24 1.44,0 1.2,-0.24 5.52,0 1.44,-0.24 0.48,0.48 -0.24,0.24 -0.24,0 -1.44,0.24 -5.28,0 -1.44,0.24 -1.2,0 -1.44,0.24 -1.2,0 -2.16,0.24 -1.2,0.24 -1.2,0 -4.8,1.2 -3.6,1.2 -1.44,0.72 -0.96,0.96 0,0.72 0,-0.24"
       style="fill:#000000;fill-opacity:1;fill-rule:nonzero;stroke:none"
       id="path592"
       inkscape:connector-curvature="0" /><path
       d="m 352.32,579.84 0,-0.24 0.24,-0.24 0.24,0 0,0.24 0.24,0 0,0.48 0.24,0.24 0,0.24 0.72,0.72 0.96,0.48 0.72,0.24 0.48,0.24 2.16,0.72 0.96,0.24 0.72,0.24 2.88,0.72 1.2,0 0.96,0.24 1.2,0.24 1.2,0 0.96,0.24 1.44,0 1.2,0.24 1.2,0 1.44,0.24 6.96,0 0,0.24 0.24,0 0,0.24 -0.24,0.24 -7.2,0 -1.2,-0.24 -1.44,0 -1.2,-0.24 -1.2,0 -1.2,-0.24 -1.2,0 -1.2,-0.24 -0.96,-0.24 -1.2,-0.24 -0.72,0 -1.2,-0.24 -0.96,-0.24 -0.72,-0.24 -0.96,-0.24 -2.88,-0.96 -0.96,-0.48 -0.48,-0.48 -0.48,-0.24 -0.48,-0.48 -0.24,-0.48 -0.24,-0.24 0,-0.48"
       style="fill:#000000;fill-opacity:1;fill-rule:nonzero;stroke:none"
       id="path594"
       inkscape:connector-curvature="0" /><path
       d="m 408.72,591.84 0,0.24 -0.24,0.24 -0.24,0 0,-0.24 -0.24,0 0,-0.24 0,0.24 0,-0.72 -0.72,-0.72 -2.4,-1.2 -2.16,-0.72 -0.96,-0.24 -0.72,-0.24 -3.84,-0.96 -1.2,0 -1.2,-0.24 -1.2,0 -1.2,-0.24 -2.4,-0.24 -1.2,0 -1.44,-0.24 -5.52,0 -1.2,-0.24 -0.48,0 0,-0.48 0.24,-0.24 0.24,0 1.2,0.24 5.52,0 1.44,0.24 1.2,0 2.4,0.24 1.44,0.24 0.96,0 2.4,0.48 0.96,0.24 1.2,0 0.96,0.24 0.72,0.24 1.92,0.48 2.88,0.96 0.48,0.48 1.44,0.72 0.24,0.24 0.24,0.48 0.24,0.24 0,0.48 0.24,0.24"
       style="fill:#000000;fill-opacity:1;fill-rule:nonzero;stroke:none"
       id="path596"
       inkscape:connector-curvature="0" /><path
       d="m 334.32,579.84 0,-0.24 0.24,-0.24 0.48,0.48 -0.24,0.24 0,1.44 -0.72,1.44 -1.2,1.2 -0.72,0.48 -0.48,0.48 -0.48,0 -0.24,0.24 -1.44,0.48 -0.48,0.24 -2.16,0 0,-0.48 0.24,-0.24 1.92,0 0.24,-0.24 1.44,-0.48 0.24,0 0.24,-0.24 0.48,-0.24 0.72,-0.48 0.96,-0.96 0,-0.24 0.48,-0.72 0.24,-0.48 0,-0.24 0.24,-0.24 0,-0.96"
       style="fill:#000000;fill-opacity:1;fill-rule:nonzero;stroke:none"
       id="path598"
       inkscape:connector-curvature="0" /><path
       d="m 320.4,591.84 0,0.24 -0.24,0.24 -0.24,0 0,-0.24 -0.24,0 0,-0.72 0.48,-1.44 0,-0.24 0.24,-0.24 0,-0.24 0.48,-0.48 0,-0.48 0.96,-0.96 0.72,-0.24 0.48,-0.48 0.24,0 0.48,-0.24 0.24,-0.24 0.24,0 0.72,-0.24 0.48,-0.24 1.44,0 0.24,-0.24 0.24,0 0,0.24 0.24,0 0,0.24 -0.24,0.24 -0.48,0.24 -1.44,0 -0.24,0.24 -0.72,0.24 -0.24,0 -0.24,0.24 -0.48,0 -0.48,0.24 -0.72,0.72 -0.48,0.24 -0.24,0.48 -0.48,0.48 -0.24,0.48 0,0.24 -0.24,0.24 0,0.72 -0.24,0.48 0,0.48"
       style="fill:#000000;fill-opacity:1;fill-rule:nonzero;stroke:none"
       id="path600"
       inkscape:connector-curvature="0" /><path
       d="m 305.04,579.84 0,-0.24 0.24,-0.24 0.48,0.48 0,1.2 0.24,0.48 0,0.24 0.24,0.48 0.96,0.96 0.24,0.48 0.24,0.24 1.44,0.72 0.24,0 0.24,0.24 0.48,0 0.24,0.24 0.24,0 0.24,0.24 1.92,0 0,0.24 0.24,0 0,0.24 -0.24,0.24 -1.92,0 -0.48,-0.24 -0.24,0 -0.24,-0.24 -0.48,0 -0.24,-0.24 -0.48,-0.24 -0.24,0 -0.72,-0.48 -0.48,-0.48 -1.2,-0.96 -0.24,-0.72 -0.24,-0.48 -0.24,-0.24 -0.24,-0.72 0,-1.2"
       style="fill:#000000;fill-opacity:1;fill-rule:nonzero;stroke:none"
       id="path602"
       inkscape:connector-curvature="0" /><path
       d="m 320.4,591.84 0,0.24 -0.24,0.24 -0.24,0 0,-0.24 -0.24,0 0,-0.24 0,0.24 0,-0.96 -0.24,-0.24 0,-0.48 -0.24,-0.48 -0.24,-0.24 -0.24,-0.48 0,-0.24 -0.48,-0.48 0,-0.24 -0.24,0 -0.24,-0.24 -1.44,-0.96 -0.72,-0.24 -0.24,0 -0.96,-0.48 -1.44,0 -0.24,-0.24 -0.24,0 0,-0.48 0.24,-0.24 0.24,0.24 1.68,0 0.24,0.24 0.72,0.24 0.24,0 0.72,0.48 0.96,0.48 0.72,0.24 0.72,0.96 0.24,0.48 0.48,0.48 0.24,0.48 0.24,0.72 0,0.24 0.24,0.24 0,0.96"
       style="fill:#000000;fill-opacity:1;fill-rule:nonzero;stroke:none"
       id="path604"
       inkscape:connector-curvature="0" /><text
       transform="matrix(0.81625,0,0,-1,307.2,598.08)"
       id="text606"><tspan
         style="font-size:7.67999983px;font-variant:normal;font-weight:normal;writing-mode:lr-tb;fill:#000000;fill-opacity:1;fill-rule:nonzero;stroke:none;font-family:Helvetica;-inkscape-font-specification:Helvetica"
         x="0 2.1912 6.5174398 8.7086401 13.03488 15.64848 18.262079 22.58832 26.91456 89.683197 95.300064 99.642052 103.98403 106.19098 108.82032 113.16231 114.93917 116.97725 121.31923 125.66122 130.0032 132.04128 137.23575 141.57773 143.3546"
         y="0"
         sodipodi:role="line"
         id="tspan608">InterruptControl and Bulk</tspan></text>
<text
       transform="matrix(0.90083333,0,0,-1,384.24,610.8)"
       id="text610"><tspan
         style="font-size:7.67999983px;font-variant:normal;font-weight:bold;writing-mode:lr-tb;fill:#000000;fill-opacity:1;fill-rule:nonzero;stroke:none;font-family:Helvetica;-inkscape-font-specification:Helvetica-Bold"
         x="0 5.9963522 10.710144 15.001536 19.715328 24.00672 26.134945 31.701216 35.992607 40.284 44.997791"
         y="0"
         sodipodi:role="line"
         id="tspan612">Queue Heads</tspan></text>
<path
       d="m 68.88,382.56 0.72,0 0,298.32 -0.72,0 0,-298.32 z"
       style="fill:#000000;fill-opacity:1;fill-rule:nonzero;stroke:none"
       id="path614"
       inkscape:connector-curvature="0" /><path
       d="m 542.4,382.56 0.72,0 0,298.32 -0.72,0 0,-298.32 z"
       style="fill:#000000;fill-opacity:1;fill-rule:nonzero;stroke:none"
       id="path616"
       inkscape:connector-curvature="0" /><path
       d="m 68.88,372.96 0.72,0 0,0.72 -0.72,0 0,-0.72 z"
       style="fill:#000000;fill-opacity:1;fill-rule:nonzero;stroke:none"
       id="path622"
       inkscape:connector-curvature="0" /><path
       d="m 68.88,372.96 0.72,0 0,0.72 -0.72,0 0,-0.72 z"
       style="fill:#000000;fill-opacity:1;fill-rule:nonzero;stroke:none"
       id="path624"
       inkscape:connector-curvature="0" /><path
       d="m 69.6,372.96 472.8,0 0,0.72 -472.8,0 0,-0.72 z"
       style="fill:#000000;fill-opacity:1;fill-rule:nonzero;stroke:none"
       id="path626"
       inkscape:connector-curvature="0" /><path
       d="m 542.4,372.96 0.72,0 0,0.72 -0.72,0 0,-0.72 z"
       style="fill:#000000;fill-opacity:1;fill-rule:nonzero;stroke:none"
       id="path628"
       inkscape:connector-curvature="0" /><path
       d="m 542.4,372.96 0.72,0 0,0.72 -0.72,0 0,-0.72 z"
       style="fill:#000000;fill-opacity:1;fill-rule:nonzero;stroke:none"
       id="path630"
       inkscape:connector-curvature="0" /><path
       d="m 68.88,373.68 0.72,0 0,8.88 -0.72,0 0,-8.88 z"
       style="fill:#000000;fill-opacity:1;fill-rule:nonzero;stroke:none"
       id="path632"
       inkscape:connector-curvature="0" /><path
       d="m 542.4,373.68 0.72,0 0,8.88 -0.72,0 0,-8.88 z"
       style="fill:#000000;fill-opacity:1;fill-rule:nonzero;stroke:none"
       id="path634"
       inkscape:connector-curvature="0" /></g></svg>